<svg width="769" height="747" viewBox="0 0 769 747" fill="none" xmlns="http://www.w3.org/2000/svg"><path d="M466.208 628.593c-.486.153-1.048.062-1.367-.104l-32.63-17.23a1.998 1.998 0 01-.84-2.671 1.999 1.999 0 012.672-.84l32.873 17.154a1.997 1.997 0 01.839 2.671c-.652.472-1.062.867-1.547 1.02z" fill="#fff"/><path d="M441.437 636.376c-.486.153-1.048.063-1.367-.104a1.997 1.997 0 01-.839-2.671l17.154-32.873a1.996 1.996 0 012.671-.839 1.997 1.997 0 01.839 2.671l-17.396 32.949c-.167.319-.576.715-1.062.867zm7.83-61.695c-.243.076-.728.229-1.047.062-.882-.256-1.506-1.394-1.249-2.276l6.78-24.276c.257-.882 1.395-1.506 2.276-1.249.881.256 1.506 1.394 1.249 2.276l-6.78 24.277c-.091.562-.5.957-1.229 1.186zm16.396 6.322c-.485.152-1.047.062-1.686-.271-.957-.5-1.096-1.79-.596-2.748l10.075-14.639c.5-.957 1.79-1.096 2.748-.596.957.499 1.096 1.79.596 2.747l-10.075 14.64c-.41.395-.576.714-1.062.867zM179.54 320.033c-.486.153-1.29.139-1.686-.271l-13.834-10.061c-.715-.576-1.097-1.79-.278-2.581.576-.715 1.79-1.097 2.581-.278l13.592 10.138c.715.576 1.096 1.79.277 2.581.077.243-.409.396-.652.472zm-60.797-23.405c-.728.229-1.609-.027-2.081-.68-.548-.895-.368-2.019.451-2.81l20.476-15.506c.895-.548 2.019-.367 2.81.452.548.895.368 2.019-.451 2.81L119.472 296.4c-.562-.091-.729.228-.729.228z" fill="#fff"/><path d="M400.67 279.901c-18.172 12.647-54.06 48.739-67.805 47.454-8.596-1.034-12.724-9.076-18.691-17.874-8.222 14.591-22.023 25.865-36.844 35.592 14.624 29.558 68.923 46.116 68.923 46.116s72.346-123.859 54.417-111.288z" fill="#E52C85"/><path d="M346.938 393.375l-1.443-.347c-2.325-.604-55.014-17.134-70.033-47.102l-.778-1.623 1.305-.944c17.749-11.447 29.212-22.52 36.269-34.877l1.575-2.629 1.644 2.685c.868 1.061 1.568 2.442 2.435 3.504 4.628 7.084 8.312 12.864 14.903 13.461 8.84.958 29.024-16.324 45.525-30.047 7.764-6.709 15.362-13.099 21.066-17.026 2.199-1.491 3.733-1.706 4.919-.478 1.825 1.561 4.517 4.184-25.918 60.175-14.718 27.038-30.317 53.819-30.484 54.138l-.985 1.11zm-67.043-47.774c13.737 25.034 57.024 40.516 65.593 43.16 26.958-45.826 54.409-96.877 56.2-107.312-5.461 3.85-12.816 10.164-20.656 16.63-18.79 15.776-37.99 31.949-48.196 30.886-8.278-.867-12.905-7.952-17.852-15.203-.076-.242-.471-.652-.548-.895-7.529 11.705-18.415 22.063-34.541 32.734z" fill="#E52C85"/><path fill-rule="evenodd" clip-rule="evenodd" d="M444.658 64.759L317.244 447.408c-.322.966.162 1.932 1.369 2.334 1.208.402 2.254-.323 2.576-1.289L448.951 64.759h-4.293z" fill="#720C46"/><path d="M124.297 330.187l8.149 64.146-66.095-4.847-7.23-107.927c13.086-2.511 23.063 7.162 30.993 18.812.471.652.943 1.304 1.491 2.199 1.416 1.957 2.588 3.99 3.837 6.266.472.652 1.02 1.547 1.249 2.276 2.344 4.066 4.613 7.889 6.486 11.303 9.942 16.354 21.12 7.772 21.12 7.772z" fill="#fff"/><path d="M134.665 396.304l-70.118-4.917-7.418-111.07 1.777-.291c15.59-3.031 26.24 9.632 32.83 19.568.472.652 1.02 1.548 1.492 2.2 1.492 2.199 2.664 4.232 3.837 6.265.472.653 1.02 1.548 1.249 2.276 1.02 1.548 1.796 3.171 2.816 4.718 1.249 2.276 2.422 4.309 3.594 6.342 3.288 5.371 6.619 8.327 10.553 8.958 4.496.722 7.757-1.637 7.757-1.637l2.533-2.129 9.098 69.717zm-66.51-8.719l62.237 4.458-7.594-58.983c-1.867.853-4.857 1.526-8.229.985-5.058-.812-9.422-4.511-13.016-10.853-1.172-2.033-2.345-4.066-3.594-6.342-1.02-1.547-1.797-3.171-2.816-4.718-.472-.652-.777-1.624-1.25-2.276-1.171-2.033-2.344-4.066-3.836-6.265l-1.415-1.957c-9.269-13.364-18.025-19.151-27.301-18.104l6.814 104.055z" fill="#720C46"/><path d="M346.843 361.653c-79.847-1.06-234.522-37.308-234.522-37.308s3.7 83.954 3.734 105.29c0 0 89.227 7.984 126.52 16.278 0 0 143.87-55.88 134.851-74.392-9.018-18.512-30.583-9.868-30.583-9.868zM96.614 310.869l-9.007 8.701c-1.228 1.186-3.129-.618-1.9-1.804l9.415-9.096c.791.819 1.263 1.471 1.492 2.199zm-5.008-8.299l-9.416 9.096c-1.228 1.186-3.13-.618-1.901-1.804l9.825-9.491a31.87 31.87 0 011.492 2.199z" fill="#720C46"/><path d="M435.093 453.994L318.921 500.37l32.036-129.87 108.077 30.611-23.941 52.883z" fill="#720C46"/><path d="M294.353 268.481c-9.229 2.9 2.975 18.81 2.975 18.81s-.652.472-1.714 1.339c-4.503-4.989-11.968-10.915-19.087-8.945-4.857 1.527-3.449 8.555-3.449 8.555s-4.232 2.664-5.232 4.579c-2.498 4.788-1.152 10.769-1.152 10.769-6.037 4.565-3.997 16.998 10.1 39.785 1.172 2.033 2.831 3.913 4.322 6.113 14.016-9.741 26.527-20.876 37.06-34.058-1.492-2.2-2.983-4.4-4.551-6.842 6.01-21.633-12.716-42.165-19.272-40.105z" fill="#fff"/><path d="M280.665 352.296l-1.186-1.229c-1.735-2.123-3.15-4.08-4.642-6.279-13.473-21.649-16.941-35.234-10.633-41.485-.368-2.019-.527-6.772 1.395-10.845.832-1.596 3.441-3.483 4.989-4.503-.264-3.386.382-8.124 4.996-9.574 5.828-1.832 11.497.923 16.18 4.788-1.95-3.656-4.038-8.604-2.768-12.205.347-1.443 1.589-3.434 4.504-4.35 2.914-.915 6.667.84 10.865 4.858 8.395 8.035 14.826 22.557 11.113 37.065.867 1.062 1.568 2.443 2.435 3.504l1.644 2.686.867 1.061-.985 1.11a181.991 181.991 0 01-37.469 34.454l-1.305.944zm-3.694-70.349c-3.157.992-2.283 6.321-2.206 6.564l.138 1.29-1.138.625c-1.79 1.096-4.156 2.907-4.413 3.788-2.165 4.149-1.048 9.401-1.048 9.401l.382 1.214-1.062.868c-5.627 4.169-1.75 17.359 10.627 37.218.944 1.304 1.964 2.851 2.984 4.399 13.121-9.193 24.736-19.78 34.36-31.609-.395-.41-.548-.895-.943-1.305-.944-1.304-1.964-2.852-2.907-4.156l-.472-.652.257-.881c3.851-13.218-2.594-26.935-9.878-33.985-3.483-3.442-6.127-4.212-7.098-3.907-1.457.458-1.79 1.096-1.88 1.658-1.104 3.282 3.038 10.519 5.792 14.19l1.263 1.471-1.471 1.262s-.652.472-1.471 1.263l-1.471 1.263-1.263-1.471c-4.26-5.066-11.01-10.416-17.082-8.508z" fill="#720C46"/><path d="M275.547 303.741c-1.519-.59-2.685 1.644-1.165 2.234 5.03 2.422 10.289 5.572 13.591 10.138 1.416 1.957 4.17 5.627.028 7.729-1.867.854-4.497-.722-6.169-1.797-2.067-1.485-3.892-3.046-6.05-3.969-1.519-.59-2.685 1.644-1.165 2.234 3.829 1.998 6.903 5.835 11.566 6.238 3.295.299 6.223-1.422 6.522-4.718 1.187-8.11-11.17-15.167-17.158-18.089z" fill="#720C46"/><path d="M293.504 289.56c-1.353-.909-2.519 1.325-1.166 2.234 5.579 3.317 6.744 10.422 2.712 15.424-2.955-6.009-10.92-10.977-15.541-13.794-1.353-.909-2.518 1.325-1.166 2.234 5.26 3.15 19.76 11.935 13.668 19.72-.909 1.352.916 2.914 1.901 1.804 2.137-2.54 2.422-5.031 1.901-7.535.32.166.805.014.972-.306 5.35-6.75 3.893-15.631-3.281-19.781zm140.527 165.301l-116.172 46.376 31.959-130.113 108.154 30.854-23.941 52.883z" fill="#720C46"/><path d="M446.343 473.672l-206.906 65.014c-3.157.992-6.848.284-9.387-1.853l-41.254-35.332c-5.869-5.094-4.016-14.481 3.512-16.847l206.906-65.014c3.157-.992 6.848-.284 9.388 1.854l41.253 35.332c5.627 5.17 3.774 14.557-3.512 16.846z" fill="#fff"/><path d="M446.955 475.615l-206.906 65.014c-3.886 1.221-7.896.346-11.15-2.367l-41.253-35.332c-3.254-2.713-4.628-7.085-3.753-11.095.798-4.253 3.754-7.583 7.882-8.881l206.906-65.014c3.886-1.22 7.896-.346 11.15 2.367l41.253 35.333c3.254 2.713 4.628 7.084 3.753 11.094-1.041 4.33-3.754 7.584-7.882 8.881zM192.92 486.597c-2.672.839-4.642 3.06-5.336 5.946-.694 2.886.464 5.724 2.608 7.452l41.254 35.333c2.143 1.727 4.787 2.498 7.458 1.658l206.906-65.014c2.672-.839 4.642-3.059 5.336-5.945.694-2.887-.464-5.725-2.608-7.452l-41.253-35.333c-2.144-1.728-4.788-2.498-7.459-1.659L192.92 486.597z" fill="#720C46"/><path d="M424.913 460.662L319.76 493.703c-.971.305-2.171-.118-2.553-1.333-.382-1.214.118-2.171 1.332-2.553l105.153-33.041c.972-.305 2.172.118 2.554 1.332.381 1.215-.361 2.248-1.333 2.554zm-15.765-19.595l-71.154 22.358c-.972.305-2.172-.118-2.553-1.332-.382-1.214.118-2.172 1.332-2.553l71.154-22.358c.972-.306 2.172.118 2.553 1.332.382 1.214-.361 2.248-1.332 2.553z" fill="#720C46"/><path d="M302.494 626.405l46.434-31.401 34.217 51.152-89.134 61.094c-8.763-10.054-5.473-23.362.383-36.142l1.166-2.234c1.166-2.234 2.089-4.392 3.331-6.383l1.166-2.234c2.241-3.906 4.482-7.813 6.314-11.323 9.236-17.311-3.877-22.529-3.877-22.529z" fill="#fff"/><path d="M293.724 709.741l-1.186-1.228c-10.421-11.935-4.918-27.539.016-38.162.257-.881.833-1.595 1.089-2.476 1.166-2.235 2.332-4.469 3.574-6.46.333-.638.833-1.596 1.409-2.31.832-1.596 1.908-3.268 2.741-4.864 1.166-2.234 2.408-4.225 3.573-6.459 2.832-5.426 3.796-9.998 2.409-13.565-1.617-4.295-5.294-5.807-5.613-5.974l-3.358-1.346 50.833-34.384 36.575 54.413-92.062 62.815zm12.231-83.357c1.748 1.318 3.725 3.365 4.717 6.522 1.769 4.781.867 10.401-2.707 16.86-1.242 1.991-2.407 4.226-3.573 6.46-.833 1.595-1.909 3.268-2.741 4.863-.576.715-.833 1.596-1.166 2.234-1.242 1.992-2.165 4.149-3.331 6.384l-1.166 2.234c-6.856 14.695-7.522 25.31-1.695 32.818l86.04-59.054-32.177-48.057-42.201 28.736z" fill="#720C46"/><path d="M299.979 660.013l11.941 3.186c1.519.59 1.158 2.838-.528 2.567l-12.579-3.518c.257-.882.833-1.596 1.166-2.235zm-4.497 8.618l12.579 3.518c1.443.347 1.158 2.838-.528 2.568l-13.141-3.609c.257-.881.59-1.52 1.09-2.477zm60.699-288.299c-13.107-.952-26.498.588-39.709 1.003-72.59 26.279-135.287 57.719-111.618 122.858 28.29 77.295 86.624 149.153 86.624 149.153l79.357-49.75s-54.037-92.152-67.011-114.758l49.121-61.062 3.236-47.444z" fill="#720C46"/><path d="M301.653 488.719c-.728.229-1.609-.028-2.157-.923l-8.374-13.912c-.548-.895-.368-2.019.527-2.567s2.019-.367 2.568.528l8.373 13.912c.548.895.368 2.019-.527 2.567-.167.319-.41.395-.41.395zm43.772-91.666l-.486.152c-56.672-.336-102.758 20.282-126.766 39.833-.819.791-1.943.61-2.734-.208-.791-.819-.61-1.943.208-2.734 24.418-19.946 71.399-41.113 129.195-40.596 1.048-.062 1.839.757 1.901 1.804-.014.805-.59 1.52-1.318 1.749z" fill="#fff"/><path d="M467.354 273.89c-3.434-1.589-7.278-2.783-11.607-3.824-33.207-7.176-68.427 8.96-77.185 40.529-10.389 37.418-54.136 48.496-54.136 48.496s94.719 53.487 124.351 76.462c0 0 14.781-25.991 27.084-53.07a3481.134 3481.134 0 011.572 44.065c.049 1.853.097 3.706.069 5.315 34.99 11.152 70.162-6.837 79.704-41.854 16.788-62.909-61.315-104.274-89.852-116.119zm13.122 97.804c4.281-10.151 7.834-20.072 9.993-28.488 4.954 2.178 8.936 4.663 10.809 8.076 9.47 15.703-6.829 22.425-20.802 20.412z" fill="#E52C85"/><path d="M517.474 434.245c-12.871 4.045-26.796 3.884-40.728-.543l-1.201-.424.104-1.366c.028-1.61-.02-3.463-.069-5.315-.152-9.825-.657-22.474-1.163-35.122l-.139-1.291c-11.29 24.36-23.739 45.882-23.905 46.201l-1 1.915-1.748-1.318c-29.237-22.566-123.318-75.719-124.352-76.462l-4.225-2.408 4.69-1.207c.486-.152 42.866-11.334 52.742-46.99 8.591-31.25 43.61-49.725 79.384-42.021 4.33 1.041 8.416 2.159 11.927 3.991 18.463 7.806 109.276 49.713 90.858 118.471-4.56 16.908-15.35 30.972-30.219 38.846-3.338 2.116-7.071 3.822-10.956 5.043zm-38.258-3.721c16.499 4.955 33.352 3.395 47.417-4.493 13.898-7.569 23.946-20.599 28.248-36.626 17.558-65.553-70.779-106.37-88.603-113.843-3.434-1.589-7.035-2.859-11.288-3.657-34.012-7.191-67.074 9.869-74.909 39.28-8.592 31.25-39.656 44.48-51.236 48.385 17.859 10.131 91.437 52.383 119.016 73.068 3.574-6.459 15.627-28.391 25.842-51.078l3.268-7.431.665 17.401c.43 12.406 1.012 25.298 1.164 35.122.381 1.215.52 2.505.416 3.872zm15.656-58.018c-4.614 1.45-10.095 1.838-14.591 1.117l-2.491-.285.923-2.158c4.781-11.108 7.925-20.634 9.826-28.169l.604-2.324 2.158.923c4.073 1.922 9.179 4.586 11.843 8.819 4.537 7.646 3.24 12.857 1.255 15.882-2.304 2.858-5.641 4.974-9.527 6.195zm-11.712-2.457c7.882.459 15.092-2.073 17.819-6.132 1.984-3.025 1.492-7.139-1.325-11.858-1.249-2.276-3.712-4.17-8.104-6.259-1.811 6.973-4.608 15.056-8.39 24.249z" fill="#E52C85"/><path d="M488.857 236.181c-1.686-.271-3.295-.299-5.148-.251l-.076-.242c-2.067-20.163-18.551-35.262-36.862-33.244-18.31 2.018-31.099 19.911-29.032 40.074 2.066 20.163 11.418 38.037 36.861 33.244 8.319-1.547 15.889-6.327 21.239-13.078 8.964 3.054 17.978-1.379 22.433-7.582 4.954-7.16 1.34-16.964-9.415-18.921z" fill="#fff"/><path d="M458.853 276.56c-1.214.382-2.671.839-3.962.978-10.095 1.838-18.526.485-25.047-4.137-7.708-5.849-12.523-16.077-13.882-30.592-1.11-10.324 1.639-20.26 7.412-28.211 5.773-7.951 14.072-12.96 23.348-14.007 9.277-1.047 18.56 2.173 25.935 8.661 7.056 6.321 11.413 15.091 12.779 24.535 1.367.104 2.734.208 3.858.388 5.939 1.069 10.47 4.449 12.239 9.229 1.616 4.295 1.213 8.958-1.59 12.774-4.455 6.202-13.482 11.44-23.417 8.692-4.927 5.55-11.116 9.63-17.673 11.69zm-17.529-71.071c-6.071 1.908-11.289 5.682-15.411 11.246-5.197 7.237-7.446 16.215-6.641 25.568 1.296 13.467 5.563 22.8 12.556 28.073 5.565 4.122 12.871 5.295 21.918 3.519 7.834-1.394 14.995-5.778 20.102-12.453l.742-1.033 1.2.423c8.403 2.963 16.368-1.408 20.247-6.896 2.061-2.782 2.359-6.078 1.125-9.158-1.388-3.567-4.808-5.961-9.381-6.925-1.443-.347-3.053-.375-4.905-.327l-1.853.049-.367-2.019c-1.047-9.277-5.085-17.881-11.746-23.793-6.66-5.912-14.743-8.708-22.972-7.724l-4.614 1.45z" fill="#720C46"/><path d="M424.484 215.584c-19.191-7.578.855-26.151 22.044-13.064 18.068-1.941 34.719 12.839 36.862 33.244.076.243-.014.805.062 1.048-2.734-.208-13.363-.07-22.473-8.681-13.321-2.485-31.09-13.178-36.495-12.547zm20.365 26.651a2.545 2.545 0 10-2.445-4.465 2.545 2.545 0 002.445 4.465zm-18.348 10.337c.098-5.634 1.243-11.33 3.026-16.693.59-1.52 2.914-.916 2.401.846-1.784 5.364-2.519 10.665-2.693 16.056-.347 1.443-2.762 1.401-2.734-.209zm49.728-3.084c3.546-4.85 9.783-7.077 15.299-4.808 1.52.59.673 2.991-.847 2.401-4.558-1.77-9.734-.41-12.461 3.649-.909 1.353-2.9.111-1.991-1.242zM609.754 66.751H394.405c-1.018 0-2.036-.764-2.036-2.036 0-1.273.764-2.037 2.036-2.037H609.5c1.018 0 2.036.764 2.036 2.037 0 1.272-.763 2.036-1.782 2.036z" fill="#720C46"/><path fill-rule="evenodd" clip-rule="evenodd" d="M552.291 63.988L435.65 414.284l3.846 1.341 116.659-350.35c.403-1.208-.081-2.174-1.288-2.576-1.208-.402-2.254.323-2.576 1.29z" fill="#720C46"/><path d="M474.127 380.358c-6.257-10.574-15.187-20.309-26.76-12.136-.243.076-.41.395-.41.395-.638-.333-1.443-.347-2.005-.437-10.588-2.277-10.179 6.667-9.173 9.019-5.69 3.122-7.758 10.976-5.017 15.452-9.014 13.772 5.049 24.562 14.937 25.457 1.609.028 2.747-.596 3.656-1.949.791.819 1.263 1.471 1.887 2.609 4.204 8.285 19.011 8.702 26.192 7.779-.263-12.725-1.08-30.612-1.544-45.675-.562-.09-1.124-.18-1.763-.514z" fill="#fff"/><path d="M479.258 428.109l-1.776.291c-7.667 1.075-23.278.644-28.107-8.779-.076-.243-.152-.485-.472-.652-1.304.944-2.595 1.082-3.719.902-6.348-.674-14.646-5.004-18.226-12.15-1.63-3.49-2.747-8.743 1.312-15.355-1.006-2.352-1.116-5.252-.422-8.139.86-3.205 2.845-6.23 5.454-8.117-.444-2.262-.312-5.239 1.582-7.702 1.561-1.824 4.413-3.788 10.186-2.4.319.167.881.257 1.2.424 4.156-2.907 8.194-3.643 12.205-2.768 5.772 1.388 11.323 6.315 16.804 15.265.319.167.562.091.881.257l1.443.347.52 11.844c.505 12.649 1.087 25.54 1.239 35.365l-.104 1.367zm-30.091-15.093l1.659 1.88c.79.819 1.415 1.957 1.963 2.852 3.351 6.418 14.681 7.661 22.501 7.072-.319-9.506-.672-21.669-1.192-33.513l-.409-8.943s-.242.076-.319-.167l-.638-.333-.472-.652c-5.085-8.542-9.678-12.969-14.569-14.1-3.13-.617-6.12.055-9.624 2.49l-1.305.944-.881-.257c-.638-.333-1.2-.423-1.762-.513-3.129-.618-5.148-.25-6.3 1.179-1.319 1.748-.965 4.572-.736 5.301l.777 1.623-1.304.944c-2.276 1.249-4.171 3.712-4.865 6.598-.603 2.324-.402 4.663.617 6.21l.625 1.138-.743 1.034c-2.893 4.378-3.449 8.554-1.423 12.454 2.636 5.842 9.901 9.43 15.125 9.923.243-.077 1.124.18 2.033-1.173l1.242-1.991z" fill="#720C46"/><path d="M464.843 377.139c-4.503-4.989-10.49-7.911-17.158-8.751-1.686-.27-2.213 2.297-.527 2.568 6.105.749 11.774 3.504 16.124 8.008.943 1.304 2.748-.597 1.561-1.825zm-18.311 2.018c-2.068-1.485-4.468-2.332-7.292-1.978-1.534.215-1.576 2.629.034 2.657 1.776-.291 3.782.146 5.454 1.222 1.353.909 3.157-.992 1.804-1.901zm-3.496 16.04c-2.539-2.137-5.897-3.483-9.117-3.539-1.609-.027-1.651 2.387.035 2.658 2.734.208 5.453 1.221 7.597 2.949 1.11.985 2.914-.916 1.485-2.068zm6.526 18.229c-4.135-2.97-9.103-4.344-13.995-5.476-1.443-.347-2.289 2.054-.527 2.568 4.648 1.207 9.297 2.415 13.356 5.142 1.353.909 2.519-1.325 1.166-2.234z" fill="#720C46"/><path fill-rule="evenodd" clip-rule="evenodd" d="M428.755 435.003l8.533-25.627 4.028.797-8.715 26.172-3.846-1.342z" fill="#720C46"/><path d="M438.35 262.149l-11.233-4.658-6.262 6.175-5.405 1.078-5.45-3.84 4.403 7.99 5.973 1.765 5.406-1.077 2.28-7.353 3.459 3.252 8.152 3.302 4.505-.898 3.226-2.614 3.182-7.532-7.731 3.512-4.505.898z" fill="#E52C85" stroke="#720C46" stroke-width="2"/><path d="M343.138 352.411c-1.457.458-3.157.992-4.691 1.207-.971.305-2.005-.438-2.31-1.409-.305-.971.437-2.005 1.409-2.31 26.9-5.251 39.12-36.841 45.456-54.041.5-.957 1.395-1.505 2.595-1.082.958.5 1.506 1.395 1.082 2.595-6.245 16.638-17.799 46.951-43.541 55.04zm110.777 7.311l-4.103 11.509 3.597 1.282 4.102-11.509-3.596-1.282zm40.957 12.784c-6.314 1.984-13.877 1.692-20.045-.105-.881-.257-1.506-1.395-1.249-2.276.257-.881 1.395-1.506 2.276-1.249 9.207 2.977 20.593 1.001 24.548-4.245 2.47-3.177 2.221-7.368-.991-12.496-.548-.895-.125-2.095.77-2.643.895-.548 2.019-.368 2.643.77 5.009 8.299 2.983 13.738.756 16.84-2.138 2.539-5.308 4.336-8.708 5.404z" fill="#720C46"/><path d="M475.342 370.638c.187 3.143.208 6.605.304 10.311l-.304-10.311z" fill="#fff"/><path d="M477.742 380.824l-3.705.097c-.097-3.706-.36-7.092-.305-10.311l3.706-.097c-.056 3.22-.036 6.682.304 10.311z" fill="#720C46"/><path fill-rule="evenodd" clip-rule="evenodd" d="M183.997 92.467c2.061 1.206 4.427 3.56 5.865 5.832 3.349 5.294 12.807 16.12 20.788 23.798 18.743 18.03 40.395 33.129 69.437 48.421 10.263 5.403 26.74 12.715 37.214 16.513 3.893 1.412 28.554 7.883 57.349 15.049 6.549 1.63 12.227 3.139 12.617 3.353 1.277.703 2.348 1.847 3.276 3.503.902 1.609 1.964 5.689 2.212 8.496.104 1.18.36 1.71 1.386 2.866 1.715 1.933 3.881 5.835 4.827 8.698 1.881 5.695 1.993 12.73.301 18.918-1.181 4.32-4.126 9.779-7.007 12.988-3.328 3.707-8.198 6.952-12.095 8.058-1.486.422-1.825.68-3.655 2.783-2.334 2.682-4.807 4.385-7.045 4.85-1.499.313-1.619.29-10.285-1.934-7.401-1.899-8.823-2.197-9.123-1.906-4.744 4.592-9.023 8.286-10.774 9.3-2.412 1.397-5.288 2.279-7.66 2.348-.897.026-1.676.06-1.73.077-.094.028-1.979 2.367-10.864 13.48a14782.052 14782.052 0 00-24.187 30.311c-4.706 5.914-8.799 10.919-9.096 11.121-.296.202-.709.321-.918.264-.594-.163-7.804-5.806-20.916-16.371-3.647-2.939-7.115-5.732-7.707-6.208-1.247-1.001-1.857-1.857-1.709-2.398.057-.209 1.29-1.341 2.739-2.515 8.257-6.691 19.794-19.811 29.094-33.088l1.939-2.768-2.054-3.356c-1.399-2.288-1.998-3.545-1.881-3.947.095-.325 2.117-2.785 4.494-5.468s4.28-4.951 4.23-5.04c-.103-.18-10.003-1.661-14.322-2.143-36.029-4.017-68.046-3.17-97.321 2.573-14.082 2.762-30.248 7.713-39.247 12.017-10.177 4.869-18.62-.145-22.998-13.657-4.937-15.24-4.52-39.468 1.167-67.647 1.343-6.656 6.826-26.69 9.064-33.123 9.468-27.205 21.421-48.125 33.66-58.909 2.978-2.624 8.297-5.691 11.011-6.349 3.558-.863 7.127-.427 9.924 1.21zm11.236 20.394c4.532 23.226.03 58.841-11.884 94.006-7.607 22.451-17.977 42.096-28.389 53.781l-2.671 2.997 2.635-.863a200.758 200.758 0 0111.09-3.283c3.395-.896 3.508-.988 7.155-5.853 9.192-12.262 17.354-28.681 23.686-47.646 2.11-6.322 6.914-24.578 7.8-29.643 2.943-16.828 3.891-28.992 3.233-41.485-.264-5.015-1.101-12.067-1.501-12.656-.129-.19-1.627-1.793-3.328-3.561a236.464 236.464 0 01-5.787-6.274 559.101 559.101 0 00-2.714-3.069c-.011-.005.293 1.592.675 3.549zm-24.779-7.799c-1.004.296-1.603.798-3.295 2.762-8.978 10.421-18.132 27.656-25.841 48.654-2.912 7.93-9.281 31.222-10.809 39.531-5.903 32.08-4.94 57.923 2.621 70.368.95 1.565 2.002 3 2.338 3.188.857.483 3.671-.297 6.495-1.801 9.069-4.83 19.448-18.504 28.746-37.873 1.714-3.571 5.188-11.574 6.399-14.744l.668-1.746-3.281-1.248a2522.62 2522.62 0 01-10.995-4.237 2303.964 2303.964 0 00-11.98-4.609c-5.325-2.02-5.26-1.985-6.161-3.349-1.391-2.108-1.774-5.922-1.195-11.896.406-4.19 3.347-14.934 5.171-18.888 2.442-5.296 5.317-9.034 7.6-9.882.579-.215 2.143-.113 5.347.35a9995.688 9995.688 0 0122.284 3.24l6.436.945.287-1.052c.388-1.416 1.529-10.462 1.909-15.124.513-6.302.837-15.375.584-16.359-.274-1.067-4.631-8.893-6.934-12.454-6.963-10.766-12.064-15.053-16.394-13.776zm39.727 22.126c2.277 19.712-.037 42.278-6.918 67.471-4.345 15.908-9.613 29.692-15.907 41.62-.652 1.236-1.233 2.419-1.29 2.629-.077.283.732.31 3.134.104 13.673-1.173 34.161-.094 55.617 2.929 17.541 2.472 45.451 7.99 58.601 11.586l3.474.95 1.458-1.735c3.064-3.646 5.869-8.545 8.558-14.945 2.088-4.97 5.472-17.351 6.174-22.586.975-7.265 1.026-13.19.153-17.688-.485-2.501-1.949-5.466-3.036-6.152-.443-.28-2.552-1.14-4.688-1.913-10.602-3.835-25.735-10.617-38.136-17.09-23.812-12.428-45.173-26.886-61.573-41.674-2.985-2.693-5.513-4.942-5.616-4.998-.104-.057-.106.614-.005 1.492zm138.59 71.372c-6.814-1.713-14.945-3.811-18.071-4.662-3.125-.852-5.705-1.462-5.734-1.358-.028.105.164.588.427 1.073 2.672 4.927 3.582 19.443 2.002 31.898-.834 6.572-1.955 11.949-4.264 20.46l-2.193 8.08 2.178.659c2.238.677 3.462 1.164 10.485 4.172 5.124 2.194 11.908 4.12 15.699 4.457 2.543.226 7.812.353 15.638.378 5.039.016 8.491.798 10.363 2.347.647.536 1.22.949 1.273.919.343-.195 3.655-6.143 4.853-8.713 2.46-5.28 3.749-9.096 5.744-17.002 2.384-9.447 3.066-15.058 2.68-22.056-.269-4.886-1.219-8.467-2.696-10.165-.715-.822-.765-.837-13.357-4.098a4349.341 4349.341 0 00-25.027-6.389zM178.65 164.981c-6.318-.918-12.664-1.842-14.103-2.054-1.439-.213-2.63-.335-2.647-.273-.017.063.082.66.221 1.327 1.32 6.353-1.744 21.051-6.21 29.794-.472.923-.815 1.755-.764 1.85.052.095 3.687 1.155 8.078 2.356 7.823 2.139 17.236 4.158 18.32 3.93.507-.108.77-.935 3.666-11.536 3.507-12.838 5.849-23.473 5.207-23.649-.155-.042-5.451-.828-11.768-1.745zm214.087 61.654c-.605 9.518-3.898 22.491-7.995 31.494-.716 1.574-1.219 2.884-1.117 2.912.419.115 4.578-1.738 5.999-2.672 1.916-1.259 2.387-1.772 3.891-4.232 1.073-1.755 1.373-2.577 2.669-7.315 1.386-5.067 1.457-5.481 1.396-8.151-.075-3.26-.765-7.243-1.644-9.492-.661-1.691-2.724-5.576-2.906-5.472-.061.035-.192 1.352-.293 2.928zm-235.281-64.338c-3.023 1.725-7.708 12.154-9.432 20.994-1.253 6.429-1.486 11.035-.704 13.938.398 1.475.778 1.752 1.632 1.189 4.397-2.898 10.084-18.685 10.492-29.128.144-3.67-.425-7.03-1.226-7.249-.116-.032-.459.083-.762.256zm-1.18 9.878c.703 1.354.581 3.748-.405 7.907-1.259 5.312-3.299 9.218-4.847 9.281-.827.033-1.157-.59-1.333-2.514-.427-4.675 3.141-14.858 5.385-15.371.768-.175.737-.192 1.2.697zm172.77 94.943c-11.955-2.963-14.48-3.519-14.78-3.25-.198.178-.686.83-1.084 1.45-.397.619-2.065 3.092-3.707 5.494-1.643 2.403-3.009 4.453-3.038 4.557-.028.104 5.164 1.572 11.539 3.263l11.59 3.075 2.088-.235c1.149-.13 2.999-.572 4.113-.982 2.794-1.029 3.763-1.799 10.982-8.716.22-.211.067-.251-17.703-4.656zm-24.136 1.234c-2.405 3.307-4.77 6.566-5.255 7.242-5.49 7.644-5.578 7.743-6.632 7.455-.323-.088-1.123-.985-1.777-1.992-.654-1.008-1.247-1.799-1.319-1.759-.071.041-1.3 1.674-2.73 3.629-9.82 13.419-18.631 23.463-26.372 30.062-1.032.881-1.949 1.731-2.036 1.891-.135.245 4.693 4.519 5.289 4.682.447.123 5.755-4.497 9.945-8.654 1.801-1.787 8.903-9.658 10.826-11.999 2.639-3.211 7.998-10.022 9.983-12.687 5.559-7.465 5.96-8.03 12.307-17.351l4.191-6.153-1.024-.19-1.023-.189-4.373 6.013zm-6.642-3.508c-2.26 2.497-4.926 5.407-5.926 6.466-2.118 2.244-2.115 2.057-.099 5.48.979 1.662 1.299 2.016 1.572 1.739.311-.317 2.566-3.394 9.652-13.175 1.404-1.938 2.584-3.635 2.621-3.771.037-.136-.783-.479-1.823-.763l-1.889-.517-4.108 4.541zm-1.699-5.72c-.025.011-2.098 2.368-4.605 5.237l-4.56 5.217.494.653c.272.359.58.679.686.711.105.033 2.178-2.145 4.607-4.838a1080.52 1080.52 0 015.073-5.601c.362-.387.684-.797.717-.911.043-.156-2.152-.582-2.412-.468zm6.372 21.194c-13.273 18.255-24.058 30.783-33.553 38.976-1.284 1.108-2.304 2.064-2.267 2.125.089.147 17.299 14.324 17.555 14.462.11.059.766-.598 1.458-1.461.692-.863 3.384-4.231 5.982-7.485 2.598-3.255 7.98-9.992 11.961-14.972 17.993-22.507 16.64-20.713 16.951-22.459.349-1.959.097-3.168-1.148-5.498l-.98-1.835-7.265-1.908-7.266-1.909-1.428 1.964z" fill="#720C46"/><path d="M170.452 105.062c-1.003.296-1.602.798-3.295 2.762-8.977 10.421-18.131 27.656-25.841 48.654-2.911 7.93-9.28 31.222-10.809 39.531-5.902 32.08-4.94 57.923 2.621 70.368.951 1.565 2.003 3 2.339 3.188.857.483 3.671-.297 6.495-1.801 9.069-4.83 19.448-18.504 28.746-37.873 1.714-3.571 5.187-11.574 6.399-14.744l.667-1.746-3.28-1.248c-1.805-.685-6.753-2.592-10.996-4.237a2303.964 2303.964 0 00-11.98-4.609c-5.325-2.02-5.26-1.985-6.16-3.349-1.391-2.108-1.774-5.922-1.195-11.896.406-4.19 3.347-14.934 5.17-18.888 2.443-5.296 5.317-9.034 7.601-9.882.579-.215 2.143-.113 5.347.35a9393.315 9393.315 0 0122.284 3.241l6.435.944.288-1.052c.387-1.416 1.528-10.461 1.908-15.124.513-6.302.837-15.374.585-16.359-.274-1.067-4.632-8.893-6.934-12.453-6.963-10.767-12.064-15.054-16.395-13.777z" fill="#E52C85"/><path fill-rule="evenodd" clip-rule="evenodd" d="M157.455 162.297c-3.023 1.725-7.709 12.154-9.432 20.994-1.254 6.429-1.486 11.035-.704 13.938.397 1.475.778 1.752 1.632 1.189 4.397-2.898 10.084-18.685 10.492-29.128.143-3.67-.425-7.03-1.226-7.249-.117-.032-.459.083-.762.256zm-1.585 17.785c.985-4.159 1.108-6.553.404-7.907-.462-.889-.432-.872-1.199-.697-2.245.513-5.812 10.696-5.385 15.371.175 1.924.506 2.547 1.333 2.514 1.548-.063 3.588-3.969 4.847-9.281z" fill="#E52C85"/><path d="M195.232 112.861c4.532 23.226.029 58.841-11.885 94.006-7.606 22.451-17.976 42.096-28.388 53.781l-2.671 2.997 2.635-.863a201.598 201.598 0 0111.089-3.283c3.396-.895 3.509-.988 7.156-5.853 9.192-12.262 17.354-28.681 23.685-47.646 2.111-6.322 6.915-24.578 7.801-29.643 2.943-16.828 3.891-28.992 3.232-41.485-.264-5.015-1.1-12.067-1.5-12.656-.13-.19-1.627-1.793-3.328-3.561a234.783 234.783 0 01-5.787-6.274 540.927 540.927 0 00-2.714-3.068c-.011-.006.293 1.591.675 3.548zm197.504 113.774c-.605 9.518-3.898 22.491-7.995 31.495-.716 1.573-1.219 2.883-1.118 2.911.42.115 4.579-1.738 6-2.672 1.915-1.259 2.387-1.772 3.891-4.232 1.073-1.755 1.373-2.577 2.669-7.315 1.386-5.067 1.457-5.481 1.395-8.151-.074-3.26-.764-7.243-1.643-9.492-.662-1.691-2.725-5.576-2.906-5.472-.061.035-.193 1.352-.293 2.928zm-89.796 53.683c-13.273 18.255-24.059 30.783-33.553 38.976-1.285 1.108-2.305 2.064-2.268 2.125.09.147 17.3 14.324 17.556 14.462.11.059.766-.598 1.458-1.461.692-.863 3.383-4.231 5.981-7.485 2.598-3.255 7.981-9.992 11.962-14.972 17.993-22.507 16.639-20.713 16.95-22.459.35-1.959.097-3.168-1.147-5.498l-.98-1.835-7.266-1.908-7.265-1.908-1.428 1.963zm26.105-13.2c-11.955-2.963-14.48-3.519-14.78-3.25-.199.178-.686.83-1.084 1.45-.397.619-2.066 3.092-3.708 5.494-1.642 2.403-3.009 4.453-3.037 4.557-.028.104 5.164 1.572 11.539 3.264l11.59 3.074 2.088-.235c1.148-.13 2.999-.572 4.113-.982 2.794-1.029 3.763-1.799 10.982-8.716.22-.21.066-.251-17.703-4.656zm-24.136 1.234c-2.405 3.307-4.77 6.566-5.256 7.242-5.489 7.644-5.578 7.743-6.631 7.455-.323-.088-1.123-.985-1.777-1.992-.654-1.008-1.248-1.799-1.319-1.759-.071.041-1.3 1.674-2.73 3.629-9.82 13.419-18.631 23.463-26.372 30.062-1.032.881-1.949 1.731-2.037 1.891-.134.245 4.694 4.52 5.29 4.682.447.123 5.755-4.497 9.945-8.654 1.801-1.787 8.902-9.658 10.826-11.999 2.639-3.211 7.997-10.022 9.982-12.687 5.56-7.465 5.961-8.03 12.308-17.351l4.19-6.153-1.023-.189-1.024-.19-4.372 6.013z" fill="#E52C85"/><path d="M178.649 164.981a11413.57 11413.57 0 01-14.103-2.054c-1.438-.213-2.63-.335-2.647-.273-.017.063.083.66.221 1.327 1.32 6.353-1.744 21.052-6.21 29.794-.471.923-.815 1.756-.764 1.851.052.094 3.687 1.155 8.078 2.355 7.823 2.139 17.237 4.158 18.32 3.93.507-.107.77-.934 3.666-11.536 3.508-12.837 5.849-23.473 5.207-23.649-.155-.042-5.451-.827-11.768-1.745zm31.532-37.793c2.276 19.712-.038 42.279-6.919 67.471-4.345 15.908-9.613 29.692-15.907 41.62-.652 1.236-1.232 2.419-1.29 2.629-.077.283.733.31 3.135.104 13.672-1.173 34.16-.094 55.616 2.93 17.541 2.472 45.452 7.989 58.601 11.585l3.474.95 1.458-1.735c3.064-3.646 5.869-8.545 8.558-14.945 2.088-4.97 5.473-17.35 6.175-22.585.974-7.266 1.025-13.191.152-17.688-.485-2.502-1.948-5.467-3.036-6.153-.443-.28-2.552-1.14-4.688-1.912-10.601-3.836-25.735-10.618-38.136-17.09-23.812-12.429-45.172-26.887-61.572-41.675-2.986-2.692-5.514-4.941-5.617-4.998-.104-.057-.105.614-.004 1.492zm88.086 137.656c-2.26 2.497-4.926 5.407-5.926 6.466-2.118 2.244-2.115 2.057-.099 5.48.979 1.662 1.3 2.016 1.572 1.74.312-.318 2.566-3.395 9.653-13.176 1.404-1.938 2.583-3.635 2.62-3.771.037-.135-.783-.479-1.822-.763l-1.89-.517-4.108 4.541zm-1.699-5.72c-.025.011-2.097 2.368-4.605 5.237l-4.56 5.217.494.653c.272.359.58.679.686.712.105.032 2.178-2.145 4.607-4.839 2.429-2.694 4.712-5.214 5.074-5.601.361-.386.683-.796.716-.911.044-.156-2.152-.582-2.412-.468z" fill="#fff"/><path d="M348.769 198.56c-6.813-1.713-14.945-3.811-18.07-4.662-3.125-.852-5.706-1.462-5.734-1.358-.029.105.163.588.426 1.073 2.672 4.927 3.583 19.443 2.002 31.898-.834 6.572-1.955 11.949-4.264 20.46l-2.193 8.08 2.178.659c2.239.677 3.462 1.164 10.485 4.172 5.125 2.194 11.909 4.12 15.699 4.457 2.543.226 7.813.353 15.638.378 5.04.016 8.491.798 10.364 2.347.647.536 1.219.949 1.272.919.343-.195 3.656-6.143 4.853-8.713 2.46-5.28 3.75-9.096 5.745-17.002 2.383-9.447 3.065-15.058 2.679-22.056-.269-4.886-1.219-8.467-2.695-10.165-.715-.822-.765-.837-13.357-4.098a4349.54 4349.54 0 00-25.028-6.389z" fill="#E52C85"/></svg>