<svg width="40" height="40" viewBox="0 0 40 40" fill="none" xmlns="http://www.w3.org/2000/svg"><g clip-path="url(#clip0_0_430)"><path d="M31.512 24.414c4.282 0 7.754-3.416 7.754-7.63 0-4.213-3.472-7.629-7.754-7.629-4.283 0-7.754 3.416-7.754 7.63 0 4.213 3.471 7.63 7.754 7.63zM9.528 40c3.67 0 6.647-2.928 6.647-6.54 0-3.61-2.976-6.539-6.647-6.539-3.67 0-6.646 2.928-6.646 6.54 0 3.611 2.976 6.54 6.646 6.54zm1.549-18.202c6.118 0 11.077-4.88 11.077-10.899C22.154 4.88 17.195 0 11.077 0S0 4.88 0 10.9c0 6.019 4.96 10.898 11.077 10.898z" fill="#EA2A8A"/><path d="M18.386 15.041h-3.323c0 4.196 3.489 7.63 7.754 7.63h3.323c0-4.197-3.434-7.63-7.754-7.63z" fill="#FBDFEC"/><path d="M26.14 22.67h-3.323c-4.265 0-7.755-3.433-7.755-7.629 6.592 2.343 11.078 7.63 11.078 7.63z" fill="#FFB8DA"/><path d="M26.142 23.106H22.82c-4.486 0-8.197-3.596-8.197-8.065 0-.218.166-.436.443-.436h3.323c4.487 0 8.197 3.597 8.197 8.065a.434.434 0 01-.443.436zm-10.634-7.63c.222 3.816 3.434 6.813 7.311 6.813h2.88c-.221-3.815-3.434-6.812-7.31-6.812h-2.88z" fill="#EA2A8A"/><path d="M26.143 23.106c-.11 0-.222-.054-.332-.163 0-.055-2.77-3.215-6.98-5.668-.22-.109-.276-.381-.165-.545a.397.397 0 01.553-.163c4.376 2.561 7.09 5.722 7.2 5.83.167.164.111.437-.055.6 0 .055-.11.11-.221.11z" fill="#EA2A8A"/><path d="M33.898 18.31h3.323c0 4.197-3.49 7.63-7.754 7.63h-3.323c0-4.196 3.489-7.63 7.754-7.63z" fill="#FBDFEC"/><path d="M26.144 25.94h3.323c4.264 0 7.754-3.433 7.754-7.63-6.591 2.344-11.077 7.63-11.077 7.63z" fill="#FFB8DA"/><path d="M29.465 26.376h-3.323a.434.434 0 01-.443-.436c0-4.414 3.655-8.065 8.197-8.065h3.323c.222 0 .443.163.443.436 0 4.468-3.655 8.065-8.197 8.065zm-2.88-.817h2.88c3.933 0 7.09-2.998 7.311-6.812h-2.88c-3.877 0-7.09 2.997-7.31 6.812z" fill="#EA2A8A"/><path d="M26.14 26.376c-.111 0-.166-.054-.277-.109-.166-.163-.222-.381-.056-.6.111-.108 2.825-3.324 7.2-5.83.222-.11.444-.055.554.163.111.218.056.436-.166.545-4.21 2.452-6.978 5.668-6.978 5.668 0 .109-.167.163-.277.163z" fill="#EA2A8A"/><path d="M20.605 26.485h3.324c0 4.196-3.49 7.629-7.755 7.629h-3.323c0-4.196 3.49-7.63 7.754-7.63z" fill="#FBDFEC"/><path d="M12.851 34.114h3.323c4.265 0 7.755-3.433 7.755-7.63-6.591 2.344-11.078 7.63-11.078 7.63z" fill="#FFB8DA"/><path d="M16.173 34.55H12.85a.434.434 0 01-.444-.435c0-4.415 3.656-8.066 8.198-8.066h3.323c.221 0 .443.164.443.436 0 4.469-3.656 8.066-8.197 8.066zm-2.88-.817h2.88c3.932 0 7.09-2.997 7.31-6.812h-2.88c-3.877 0-7.089 2.997-7.31 6.812z" fill="#EA2A8A"/><path d="M12.85 34.55c-.111 0-.166-.054-.277-.108-.166-.164-.222-.382-.056-.6.111-.109 2.825-3.324 7.2-5.831.222-.109.444-.055.555.163.11.218.055.436-.167.545-4.209 2.453-6.978 5.668-6.978 5.668 0 .109-.166.163-.277.163z" fill="#EA2A8A"/><path d="M5.096 23.215H1.773c0 4.196 3.489 7.63 7.754 7.63h3.323c0-4.197-3.434-7.63-7.754-7.63z" fill="#FBDFEC"/><path d="M12.85 30.845H9.527c-4.265 0-7.754-3.434-7.754-7.63 6.59 2.343 11.077 7.63 11.077 7.63z" fill="#FFB8DA"/><path d="M12.852 31.28H9.53c-4.486 0-8.197-3.596-8.197-8.065 0-.218.166-.436.443-.436h3.323c4.487 0 8.198 3.597 8.198 8.066a.434.434 0 01-.444.436zM2.218 23.652c.222 3.815 3.434 6.812 7.311 6.812h2.88c-.221-3.815-3.434-6.812-7.31-6.812h-2.88z" fill="#EA2A8A"/><path d="M12.853 31.282c-.11 0-.222-.055-.332-.164 0-.054-2.77-3.215-6.98-5.668-.22-.108-.276-.381-.165-.544a.399.399 0 01.554-.164c4.375 2.507 7.089 5.722 7.2 5.831.166.164.11.436-.056.6 0 .054-.11.109-.221.109zm4.983 5.993H6.759a.434.434 0 01-.444-.436c0-.218.167-.436.444-.436h11.077c.221 0 .443.164.443.436a.434.434 0 01-.443.436zm10.524 0h-8.308a.434.434 0 01-.443-.436c0-.218.166-.436.443-.436h8.308c.222 0 .444.164.444.436a.434.434 0 01-.444.436zm3.877 0h-1.661a.434.434 0 01-.443-.436c0-.218.166-.436.443-.436h1.661c.222 0 .444.164.444.436a.434.434 0 01-.444.436z" fill="#EA2A8A"/><path d="M26.14 13.951c3.364 0 6.092-2.684 6.092-5.995 0-3.31-2.728-5.994-6.093-5.994-3.364 0-6.092 2.684-6.092 5.994 0 3.311 2.728 5.995 6.092 5.995z" fill="#FBDFEC"/><path d="M32.238 7.956c0-.763-.166-1.471-.388-2.125-.664-.273-1.384-.382-2.16-.382-3.378 0-6.092 2.67-6.092 5.995 0 .763.166 1.471.387 2.125.665.273 1.385.382 2.16.382 3.379 0 6.093-2.67 6.093-5.995z" fill="#FFB8DA"/><path d="M26.145 14.387c-3.6 0-6.536-2.888-6.536-6.43s2.936-6.43 6.536-6.43c3.6 0 6.536 2.888 6.536 6.43s-2.936 6.43-6.536 6.43zm0-11.989c-3.157 0-5.65 2.507-5.65 5.559 0 3.106 2.548 5.558 5.65 5.558 3.157 0 5.65-2.506 5.65-5.558.055-3.052-2.493-5.559-5.65-5.559z" fill="#EA2A8A"/><path d="M29.964 8.447c.275 0 .499-.22.499-.49a.496.496 0 00-.499-.491.495.495 0 00-.498.49c0 .271.223.49.498.49zm-7.587 0c.275 0 .498-.22.498-.49a.495.495 0 00-.498-.491.494.494 0 00-.499.49c0 .271.223.49.498.49zm3.765 3.106c-.886 0-1.717-.49-2.05-1.253-.11-.218 0-.436.222-.545.222-.11.443 0 .554.218.222.436.72.763 1.274.763.775 0 1.384-.545 1.384-1.2 0-.544-.221-1.198-1.384-1.198-1.606 0-2.216-1.036-2.216-2.017 0-1.09.997-2.016 2.216-2.016.886 0 1.717.49 2.05 1.254.11.218 0 .435-.222.544-.222.11-.444 0-.554-.217a1.45 1.45 0 00-1.274-.763c-.776 0-1.385.545-1.385 1.198 0 .545.222 1.2 1.385 1.2 1.606 0 2.215 1.035 2.215 2.016 0 1.144-.997 2.016-2.215 2.016z" fill="#EA2A8A"/><path d="M26.142 5.232a.434.434 0 01-.443-.436v-.872c0-.218.166-.436.443-.436.222 0 .443.163.443.436v.872c0 .218-.221.436-.443.436zm0 7.193a.434.434 0 01-.443-.436v-.817c0-.218.166-.436.443-.436.222 0 .443.163.443.436v.872c0 .217-.221.381-.443.381z" fill="#EA2A8A"/><path d="M12.85 22.18c3.364 0 6.092-2.684 6.092-5.995 0-3.31-2.728-5.994-6.092-5.994-3.365 0-6.093 2.683-6.093 5.994 0 3.31 2.728 5.995 6.093 5.995z" fill="#FBDFEC"/><path d="M18.945 16.184c0-.762-.166-1.47-.388-2.125-.664-.272-1.384-.381-2.16-.381-3.378 0-6.092 2.67-6.092 5.994 0 .763.166 1.472.387 2.126.665.272 1.385.381 2.16.381 3.379 0 6.093-2.725 6.093-5.994z" fill="#FFB8DA"/><path d="M12.851 22.561c-3.6 0-6.536-2.888-6.536-6.43S9.251 9.7 12.851 9.7c3.6 0 6.536 2.888 6.536 6.43s-2.936 6.43-6.536 6.43zm0-11.989c-3.157 0-5.65 2.507-5.65 5.559 0 3.106 2.548 5.558 5.65 5.558 3.157 0 5.65-2.506 5.65-5.558.055-3.052-2.493-5.559-5.65-5.559z" fill="#EA2A8A"/><path d="M17.173 16.185c0 .273-.222.49-.499.49a.492.492 0 01-.498-.49c0-.272.221-.49.498-.49.277-.055.499.163.499.49zm-7.591.001c0 .272-.221.49-.498.49a.492.492 0 01-.499-.49c0-.273.222-.491.499-.491s.498.163.498.49zm3.268 3.541c-.887 0-1.718-.49-2.05-1.253-.11-.218 0-.436.221-.545.222-.109.444 0 .554.218.222.436.72.763 1.274.763.776 0 1.385-.545 1.385-1.199 0-.545-.222-1.199-1.385-1.199-1.606 0-2.215-1.035-2.215-2.016 0-1.09.997-2.016 2.215-2.016.886 0 1.717.49 2.05 1.253.11.218 0 .436-.222.545-.222.109-.443 0-.554-.218a1.45 1.45 0 00-1.274-.763c-.775 0-1.384.545-1.384 1.199 0 .545.221 1.199 1.384 1.199 1.606 0 2.216 1.035 2.216 2.016 0 1.145-.997 2.017-2.216 2.017z" fill="#EA2A8A"/><path d="M12.85 13.406a.434.434 0 01-.444-.436v-.872c0-.218.166-.436.444-.436.221 0 .443.164.443.436v.872c0 .218-.222.436-.443.436zm0 7.194a.434.434 0 01-.444-.437v-.817c0-.218.166-.436.444-.436.221 0 .443.164.443.436v.872c0 .218-.222.381-.443.381zm13.292 16.675a.434.434 0 01-.443-.436V13.951c0-.218.166-.436.443-.436.222 0 .443.163.443.436v22.888a.434.434 0 01-.443.436zm-13.292 0a.434.434 0 01-.444-.436V22.125c0-.218.166-.436.444-.436.221 0 .443.164.443.436V36.84a.434.434 0 01-.443.436z" fill="#EA2A8A"/><path d="M15.616 7.466c.611 0 1.107-.488 1.107-1.09 0-.602-.496-1.09-1.107-1.09a1.1 1.1 0 00-1.108 1.09 1.1 1.1 0 001.108 1.09z" fill="#FBDFEC"/><path d="M15.617 7.847c-.83 0-1.55-.654-1.55-1.526 0-.818.664-1.526 1.55-1.526s1.551.654 1.551 1.526-.72 1.526-1.55 1.526zm0-2.18a.668.668 0 00-.664.654c0 .381.332.654.664.654a.668.668 0 00.665-.654c.055-.327-.277-.654-.665-.654z" fill="#EA2A8A"/><path d="M33.342 15.64a1.1 1.1 0 001.108-1.09 1.1 1.1 0 00-1.108-1.09 1.1 1.1 0 00-1.108 1.09 1.1 1.1 0 001.108 1.09z" fill="#FBDFEC"/><path d="M33.34 16.022c-.83 0-1.55-.654-1.55-1.526 0-.817.664-1.526 1.55-1.526.887 0 1.551.654 1.551 1.526s-.664 1.526-1.55 1.526zm0-2.18a.668.668 0 00-.664.654c0 .381.332.654.665.654a.668.668 0 00.664-.654c.056-.327-.277-.654-.664-.654z" fill="#EA2A8A"/><path d="M30.573 30.899a1.1 1.1 0 001.108-1.09 1.1 1.1 0 00-1.108-1.09c-.611 0-1.107.488-1.107 1.09 0 .602.496 1.09 1.107 1.09z" fill="#FBDFEC"/><path d="M30.573 31.28c-.83 0-1.55-.653-1.55-1.525 0-.818.664-1.526 1.55-1.526.831 0 1.551.654 1.551 1.526s-.665 1.526-1.55 1.526zm0-2.18a.668.668 0 00-.664.655c0 .381.332.654.664.654a.668.668 0 00.665-.654c.055-.327-.277-.654-.665-.654z" fill="#EA2A8A"/><path d="M35.002 34.168a1.1 1.1 0 001.108-1.09 1.1 1.1 0 00-1.108-1.09 1.1 1.1 0 00-1.108 1.09 1.1 1.1 0 001.108 1.09z" fill="#FBDFEC"/><path d="M35.005 34.55c-.831 0-1.551-.654-1.551-1.526 0-.817.665-1.526 1.55-1.526.887 0 1.552.654 1.552 1.526s-.665 1.526-1.551 1.526zm0-2.18a.668.668 0 00-.665.654c0 .382.332.654.665.654a.668.668 0 00.664-.654c.056-.327-.277-.654-.664-.654z" fill="#EA2A8A"/><path d="M8.974 5.286a1.1 1.1 0 001.108-1.09 1.1 1.1 0 00-1.108-1.09c-.611 0-1.107.488-1.107 1.09 0 .602.496 1.09 1.107 1.09z" fill="#FBDFEC"/><path d="M8.973 5.668c-.831 0-1.551-.654-1.551-1.526 0-.818.664-1.526 1.55-1.526.887 0 1.551.654 1.551 1.526s-.72 1.526-1.55 1.526zm0-2.18a.668.668 0 00-.665.654c0 .381.332.654.665.654.332 0 .664-.327.664-.654.056-.327-.277-.654-.664-.654z" fill="#EA2A8A"/><path d="M4.541 11.28c.612 0 1.108-.487 1.108-1.09A1.1 1.1 0 004.541 9.1c-.612 0-1.107.489-1.107 1.09 0 .603.495 1.09 1.107 1.09z" fill="#FBDFEC"/><path d="M4.54 11.662c-.831 0-1.551-.654-1.551-1.526 0-.817.664-1.526 1.55-1.526.887 0 1.551.654 1.551 1.526s-.72 1.526-1.55 1.526zm0-2.18a.668.668 0 00-.665.654c0 .382.332.654.664.654a.668.668 0 00.665-.654c.055-.327-.277-.654-.665-.654z" fill="#EA2A8A"/><path d="M6.757 34.714a1.1 1.1 0 001.108-1.09 1.1 1.1 0 00-1.108-1.09 1.1 1.1 0 00-1.108 1.09 1.1 1.1 0 001.108 1.09z" fill="#FBDFEC"/><path d="M6.757 35.095c-.83 0-1.55-.654-1.55-1.526 0-.817.664-1.526 1.55-1.526s1.55.654 1.55 1.526-.72 1.526-1.55 1.526zm0-2.18a.668.668 0 00-.665.654c0 .382.333.654.665.654s.665-.327.665-.654c.055-.327-.277-.654-.665-.654z" fill="#EA2A8A"/></g><defs><clipPath id="clip0_0_430"><path fill="#fff" d="M0 0h39.999v40H0z"/></clipPath></defs></svg>