<svg width="40" height="40" viewBox="0 0 40 40" fill="none" xmlns="http://www.w3.org/2000/svg"><g clip-path="url(#clip0_2_274)"><path d="M2.494 17.969a.412.412 0 01-.416-.42c0-.945-.78-1.68-1.662-1.68a.412.412 0 01-.416-.42c0-.21.156-.42.416-.42.935 0 1.662-.787 1.662-1.68 0-.21.156-.42.416-.42.207 0 .415.158.415.42 0 .945.78 1.68 1.662 1.68.208 0 .416.158.416.42 0 .21-.156.42-.416.42-.935 0-1.662.787-1.662 1.732 0 .21-.208.368-.415.368zM1.766 15.5c.312.21.572.473.728.735.207-.315.467-.577.727-.735a2.433 2.433 0 01-.728-.734c-.207.262-.415.524-.727.734z" fill="#EA2A8A"/><path d="M7.161 30c3.955 0 7.161-3.182 7.161-7.107 0-3.925-3.206-7.106-7.16-7.106C3.205 15.787 0 18.968 0 22.893S3.206 30 7.161 30zm17.902-17.817c3.39 0 6.138-2.727 6.138-6.092C31.201 2.727 28.453 0 25.063 0c-3.39 0-6.138 2.727-6.138 6.091 0 3.365 2.748 6.092 6.138 6.092zM29.77 40C35.42 40 40 35.455 40 29.848c0-5.607-4.58-10.153-10.23-10.153s-10.23 4.546-10.23 10.153S24.12 40 29.77 40z" fill="#EA2A8A"/><g clip-path="url(#clip1_2_274)"><path d="M27.006 9.462a3.412 3.412 0 00-3.412-3.411H12.173A3.412 3.412 0 008.76 9.462c0 4.228.722 5.295.722 9.523v10.472h16.8V18.985c0-4.228.723-5.295.723-9.523z" fill="#FFB8DA"/><path d="M25.026 10.839h-.986v2.644h.986a.85.85 0 00.85-.851v-.943a.85.85 0 00-.85-.85zm-9.473 0h-.986a.85.85 0 00-.85.85v.943c0 .47.38.85.85.85h.986V10.84z" fill="#FBDFEC"/><path d="M19.796 29.305l3.674-8.453c-.042-.006-.082-.58-.121-.585a.814.814 0 01-.71-.806V15.74h-5.685v3.72a.814.814 0 01-.71.807c-.039.006-.08.579-.121.585l3.673 8.453z" fill="#FFB8DA"/><path d="M27.421 6.05h-4.006a3.412 3.412 0 013.412 3.412c0 4.229-.723 5.295-.723 9.523v10.472h4.006V18.985c0-4.228.723-5.295.723-9.523a3.412 3.412 0 00-3.412-3.411z" fill="#FBDFEC"/><path d="M20.387 16.762c.944-.812 1.355-2.009 1.382-3.252V5.398a4.862 4.862 0 00-1.97-.431c-1.401.016-2.462.583-3.216 1.232a4.288 4.288 0 00-1.371 2.321l.003 4.929c.027 1.234.43 2.422 1.368 3.23.529.455 1.209.87 2.05 1.083a5.115 5.115 0 001.754-1z" fill="#FFB8DA"/><path d="M24.385 13.448V8.52a4.288 4.288 0 00-1.372-2.32 5.173 5.173 0 00-1.339-.843l-.001 8.091c-.027 1.235-.435 2.423-1.372 3.23a5.06 5.06 0 01-1.86 1.03c.41.122.862.197 1.356.203 1.401-.016 2.462-.583 3.216-1.233.938-.807 1.346-1.995 1.372-3.23zm2.584 13.131c0-1.564-.92-2.98-2.348-3.616-1.019-.454-2.91-.791-4.197-.988l-.626.487-3.099-2.41a.812.812 0 01-.453.215c-1.21.157-3.668.53-4.968 1.11a3.958 3.958 0 00-2.348 3.616v5.344c0 .631.512 1.144 1.144 1.144H26.97v-4.902z" fill="#FFB8DA"/><path d="M28.318 21.377c-1.3-.58-3.758-.953-4.967-1.11a.812.812 0 01-.454-.214l-2.664 2.071c1.289.195 3.056.525 4.091.986a3.958 3.958 0 012.349 3.616v4.755h2.85c.631 0 1.144-.513 1.144-1.145v-5.344c0-1.563-.92-2.98-2.349-3.616z" fill="#FFB8DA"/><path d="M19.844 7.705c.609 0 1.213-.1 1.79-.295l.113-.04.022-.006v-2.79l-.093-.05h-3.811a3.479 3.479 0 00-3.479 3.48v2.855a.85.85 0 01.183-.02h.811a.947.947 0 00.614-.886V8.145c0-.504.408-.912.912-.912h.196c.285 0 .568.047.838.138l.114.039a5.575 5.575 0 001.79.295z" fill="#EA2A8A"/><path d="M25.028 10.839a.85.85 0 01.183.02V8.004a3.48 3.48 0 00-3.48-3.48h-.056v2.871l.072-.024c.27-.092.552-.139.837-.139h.107c.503 0 .912.409.912.912v1.809c0 .405.255.75.613.886h.812zm-5.23 11.623l-1.502.758.758 1.616h1.489l.758-1.616-1.503-.758zm.744 2.374h-1.49l-1.668 6.645h4.827l-1.669-6.645z" fill="#EA2A8A"/><path d="M16.245 20.267c-.311.04-.705.096-1.14.164l1.123 2.888a.77.77 0 001.063.408l2.506-1.265-3.099-2.41a.812.812 0 01-.453.215zm4.179 1.709l-.626.486 2.506 1.265a.77.77 0 001.063-.408l.271-.696c-1.01-.285-2.273-.504-3.214-.648z" fill="#FFB8DA"/><path d="M26.968 26.579c0-1.564-.92-2.98-2.348-3.616a8.183 8.183 0 00-1.192-.398l-2.917 7.163a.77.77 0 01-1.427 0l-3.798-9.325c-1.01.155-2.292.391-3.286.705v10.373h14.968v-4.902z" fill="#FFB8DA"/><path d="M23.558 22.829l.933-2.398c-.435-.068-.83-.123-1.14-.164a.812.812 0 01-.454-.214l-2.664 2.071c1.009.153 2.31.388 3.325.705z" fill="#FFB8DA"/><path d="M24.308 20.403l-.962 2.362c.363.105.697.22.977.345a3.958 3.958 0 012.348 3.616v4.755h.928V21.11c-.994-.315-2.278-.552-3.29-.707z" fill="#FBDFEC"/><path d="M30.792 35.059v-7.334H4.978v7.334c0 .453.367.82.82.82h24.174a.82.82 0 00.82-.82z" fill="#FFB8DA"/><path d="M30.623 27.725v7.334a.82.82 0 01-.82.82h3.994a.82.82 0 00.82-.82v-7.334h-3.994z" fill="#FBDFEC"/><path d="M31.66 29.041v-1.468l-.168-.255H4.977a.867.867 0 00-.867.867v.856c0 .479.388.867.867.867h25.817a.867.867 0 00.866-.867z" fill="#EA2A8A"/><path d="M34.62 27.318h-3.127v1.723a.867.867 0 01-.867.867h3.994a.867.867 0 00.867-.867v-.856a.867.867 0 00-.867-.867z" fill="#EA2A8A"/><path d="M34.62 26.845h-3.48v-1.853c0-.765-.198-1.5-.555-2.144.05-2.953-.165-5.143.356-8.553.13-.85.226-1.716.287-2.573a.474.474 0 10-.945-.067 31.251 31.251 0 01-.278 2.497c-.513 3.358-.327 5.604-.367 7.517-1.411-1.246-4.334-1.626-6.227-1.871a.34.34 0 01-.297-.337v-2.252c.07-.056.14-.113.21-.172.849-.732 1.373-1.813 1.504-3.081h.2c.73 0 1.324-.594 1.324-1.324v-.943c0-.48-.266-.915-.668-1.147V8.003c0-.523-.103-1.022-.289-1.48h2.027a2.941 2.941 0 012.938 2.94.473.473 0 00.948 0 3.89 3.89 0 00-3.886-3.886h-2.574a3.947 3.947 0 00-3.117-1.526h-3.867a3.946 3.946 0 00-3.117 1.526h-2.573a3.89 3.89 0 00-3.885 3.885c0 1.613.123 3.239.366 4.833.52 3.412.305 5.603.356 8.553a4.425 4.425 0 00-.555 2.144v1.853h-3.48c-.738 0-1.34.6-1.34 1.34v.856c0 .573.362 1.061.868 1.253v4.765c0 .713.58 1.294 1.294 1.294h28c.713 0 1.294-.58 1.294-1.294v-4.765c.506-.192.868-.68.868-1.253v-.856c0-.74-.602-1.34-1.34-1.34zm-4.427-1.853v1.853h-2.12v-5.058a3.486 3.486 0 012.12 3.205zm-7.996 1.853l2.409-5.915c.794.13 1.728.309 2.52.532v5.383h-4.929zm-5.89-6.108a1.31 1.31 0 00.367-.104l2.242 1.743-1.837.928a.29.29 0 01-.088.028l-1.038-2.548.354-.047zm5.783 3.412c.05.026.103.047.156.065l-.848 2.083-.355-1.413.48-1.022.567.287zm-2.736.214l-.434-.928.878-.443.878.443-.434.928h-.888zm-1.848-.214l.568-.287.479 1.022-.355 1.413-.848-2.083c.053-.018.105-.04.156-.065zm1.917 1.16h.75l.386 1.536h-1.522l.386-1.535zm4.22-4.525l-1.038 2.547a.288.288 0 01-.088-.027l-1.21-.611-.628-.317 2.243-1.743c.218.098.345.1.72.151zm-1.38-.839l-2.465 1.917-2.466-1.917c.063-.153.097-.317.097-.485v-1.645c.728.368 1.519.56 2.364.569h.01a5.31 5.31 0 002.364-.57v1.646c0 .168.034.332.097.485zm.442-3.626c-.82.707-1.794 1.104-2.907 1.118-1.107-.014-2.082-.407-2.907-1.118-.947-.815-1.178-1.987-1.202-2.841v-.008l-.003-2.251c.472-.24.78-.73.78-1.266V8.144a.44.44 0 01.44-.438h.196c.754 0 1.221.472 2.741.472 1.492 0 2.003-.472 2.741-.472h.107c.242 0 .438.197.438.438v1.809c0 .536.31 1.028.783 1.267v2.265c-.026.852-.26 2.019-1.207 2.834zm-8.514-4.63a.379.379 0 01.377-.377h.171l.002 1.697h-.173a.378.378 0 01-.377-.377v-.943zm11.214.943c0 .208-.17.377-.377.377h-.17v-1.697h.17a.38.38 0 01.377.377v.943zm-7.541-7.634h3.867a3.01 3.01 0 013.006 3.005v2.362h-.418a.476.476 0 01-.243-.412V8.144c0-.764-.621-1.385-1.385-1.385h-.107c-1.022 0-1.312.472-2.741.472-1.411 0-1.726-.472-2.741-.472h-.197c-.764 0-1.385.621-1.385 1.385v1.809a.476.476 0 01-.242.412h-.419V8.003a3.008 3.008 0 013.005-3.005zm-5.69 1.526H14.2a3.93 3.93 0 00-.288 1.48v2.538a1.332 1.332 0 00-.668 1.147v.943c0 .73.594 1.324 1.324 1.324h.204c.127 1.281.64 2.34 1.5 3.081.07.06.14.116.21.172v2.252a.34.34 0 01-.297.337c-1.874.243-4.813.623-6.227 1.871-.04-1.918.148-4.143-.367-7.517a31.196 31.196 0 01-.356-4.69 2.942 2.942 0 012.939-2.938zm-2.77 18.468c0-1.36.796-2.639 2.123-3.207v1.322a.473.473 0 10.947 0v-1.646c.792-.223 1.724-.402 2.516-.531l1.221 2.998 1.188 2.917h-4.925V25.32a.473.473 0 00-.947 0v1.524H9.403v-1.853zm-4.82 3.193c0-.217.176-.393.393-.393h29.642c.217 0 .394.176.394.393v.856a.394.394 0 01-.394.394H4.977a.394.394 0 01-.394-.394v-.856zm29.214 7.22h-28a.347.347 0 01-.347-.346v-4.677h28.694v4.677a.347.347 0 01-.347.347z" fill="#EA2A8A"/></g><path d="M35.626 11.047a.412.412 0 01-.415-.42c0-.944-.78-1.68-1.663-1.68a.412.412 0 01-.415-.42c0-.21.156-.367.415-.367.935 0 1.663-.787 1.663-1.68 0-.21.156-.42.415-.42.208 0 .416.158.416.42 0 .945.78 1.68 1.662 1.68.208 0 .416.158.416.368s-.156.42-.416.42c-.935 0-1.662.787-1.662 1.68 0 .262-.208.42-.416.42zm-.727-2.52c.312.21.572.473.727.736.208-.315.468-.578.728-.735a2.435 2.435 0 01-.728-.735c-.207.315-.415.577-.727.735zM3.704 7.463a.412.412 0 01-.415-.42c0-.945-.78-1.68-1.662-1.68a.412.412 0 01-.416-.42c0-.21.156-.42.416-.42.935 0 1.662-.787 1.662-1.68 0-.21.156-.42.415-.42.208 0 .416.158.416.42 0 .946.78 1.68 1.662 1.68.208 0 .416.158.416.42 0 .21-.156.42-.416.42-.935 0-1.662.788-1.662 1.733 0 .21-.208.367-.416.367zm-.727-2.467c.312.21.572.472.727.735.208-.315.468-.578.728-.735a2.434 2.434 0 01-.728-.735c-.207.263-.415.525-.727.735z" fill="#EA2A8A"/></g><defs><clipPath id="clip0_2_274"><path fill="#fff" d="M0 0h39.999v40H0z"/></clipPath><clipPath id="clip1_2_274"><path fill="#fff" transform="translate(3.636 4.04)" d="M0 0h32.323v32.323H0z"/></clipPath></defs></svg>