<svg width="40" height="40" viewBox="0 0 40 40" fill="none" xmlns="http://www.w3.org/2000/svg"><g clip-path="url(#clip0_0_345)"><path d="M10.74 16.342v23.17l9.052-4.878V16.342h-9.051zm9.052 0v18.292l9.052 4.878v-23.17h-9.052z" fill="#FFDAEC"/><path d="M19.792 23.049H14.36V37.56l5.43-2.927V23.05zm9.051 0h-5.43v13.536l5.43 2.927V23.05z" fill="#fff"/><path d="M10.74 40c-.06 0-.18 0-.241-.061-.12-.061-.242-.244-.242-.366v-23.17c0-.245.181-.488.483-.488h9.051c.242 0 .483.182.483.487v18.293c0 .183-.12.305-.241.427L10.98 40h-.24zm.483-23.17v21.95l8.146-4.39V16.83h-8.146z" fill="#EA2A8A"/><path d="M28.846 40c-.06 0-.12 0-.241-.061l-9.052-4.878a.514.514 0 01-.241-.427V16.341c0-.244.18-.487.483-.487h9.05c.242 0 .484.183.484.487v23.171c0 .183-.06.305-.242.366-.06.122-.12.122-.241.122zm-8.569-5.61l8.147 4.39V16.83h-8.147v17.56z" fill="#EA2A8A"/><path d="M21.3 1.28c.543.793 1.629.976 2.413.488 1.026-.67 2.414-.06 2.715 1.159.242.915 1.087 1.524 2.052 1.402 1.207-.182 2.293.854 2.052 2.074-.12.975.422 1.829 1.388 2.073 1.206.305 1.75 1.707 1.146 2.744-.483.792-.302 1.89.483 2.439a1.835 1.835 0 010 2.987c-.785.55-.966 1.647-.483 2.44.664 1.036.06 2.439-1.146 2.744a1.883 1.883 0 00-1.388 2.073c.18 1.22-.845 2.317-2.052 2.073-.965-.122-1.81.427-2.052 1.402-.301 1.22-1.689 1.768-2.715 1.159-.784-.488-1.87-.305-2.414.488a1.794 1.794 0 01-2.956 0c-.543-.793-1.63-.976-2.414-.488-1.026.67-2.414.06-2.715-1.159-.242-.914-1.087-1.524-2.052-1.402-1.207.183-2.293-.854-2.052-2.073.121-.976-.422-1.83-1.388-2.073-1.206-.305-1.75-1.708-1.146-2.744.483-.793.302-1.89-.483-2.44a1.835 1.835 0 010-2.987c.785-.55.966-1.647.483-2.44-.664-1.036-.06-2.438 1.146-2.743A1.883 1.883 0 009.11 6.403c-.18-1.22.845-2.317 2.052-2.074.965.122 1.81-.426 2.052-1.402.301-1.22 1.69-1.768 2.715-1.159.784.488 1.87.305 2.414-.487a1.794 1.794 0 012.956 0z" fill="#FFDAEC"/><path d="M13.215 27.378c.302 1.22 1.69 1.768 2.715 1.159.785-.488 1.87-.305 2.414.487a1.794 1.794 0 002.957 0c.543-.792 1.629-.975 2.413-.488 1.026.671 2.414.061 2.716-1.158.241-.915 1.086-1.524 2.051-1.402 1.207.182 2.293-.854 2.052-2.074-.12-.975.422-1.829 1.388-2.073 1.207-.305 1.75-1.707 1.146-2.744-.482-.792-.301-1.89.483-2.439a1.835 1.835 0 000-2.988c-.784-.548-.965-1.646-.483-2.439.664-1.036.06-2.439-1.146-2.744a1.883 1.883 0 01-1.388-2.073v-.06a14.593 14.593 0 00-5.853-1.22c-8.207 0-14.844 6.707-14.844 15 0 2.134.422 4.085 1.207 5.915h.06a1.834 1.834 0 012.112 1.34z" fill="#fff"/><path d="M19.792 26.098c5.998 0 10.861-4.914 10.861-10.976 0-6.062-4.863-10.976-10.861-10.976-5.999 0-10.862 4.914-10.862 10.976 0 6.062 4.863 10.976 10.862 10.976z" fill="#FFDAEC"/><path d="M30.655 15.122c0-1.951-.483-3.72-1.388-5.305-1.569-.854-3.379-1.403-5.25-1.403-5.973 0-10.861 4.94-10.861 10.976 0 1.951.483 3.72 1.388 5.305 1.569.854 3.379 1.402 5.25 1.402 6.034 0 10.861-4.878 10.861-10.975z" fill="#fff"/><path d="M19.79 26.585c-6.214 0-11.343-5.122-11.343-11.463 0-6.28 5.068-11.463 11.344-11.463 6.215 0 11.344 5.121 11.344 11.463 0 6.341-5.069 11.463-11.344 11.463zm0-21.95c-5.732 0-10.378 4.694-10.378 10.487S14.058 25.61 19.791 25.61c5.732 0 10.379-4.695 10.379-10.488.06-5.793-4.647-10.488-10.38-10.488z" fill="#EA2A8A"/><path d="M25.827 18.293l-2.776-.732h-3.259v8.536c3.078 0 5.854-1.28 7.845-3.414V20.61c0-1.037-.724-2.013-1.81-2.317zm-9.295-.732l-2.776.732a2.467 2.467 0 00-1.81 2.378v2.073c1.992 2.073 4.767 3.415 7.845 3.415v-8.537h-3.259v-.06z" fill="#FFDAEC"/><path d="M25.827 18.293l-.724-.183c.06.244.12.488.12.732v1.524c0 .305-.12.67-.362.854a10.617 10.617 0 01-5.069 2.744v2.134a10.65 10.65 0 007.845-3.415V20.61c0-1.037-.724-2.012-1.81-2.317zm-6.036-.733h-2.414v6.098c0 .366-.301.61-.603.61-1.63-.122-3.198-.549-4.586-1.341a10.71 10.71 0 007.603 3.17v-8.536z" fill="#fff"/><path d="M19.795 26.585a.478.478 0 01-.483-.488v-8.536c0-.244.18-.488.483-.488h3.378l2.777.732c1.267.305 2.111 1.463 2.111 2.805v2.073a.47.47 0 01-.12.305 10.907 10.907 0 01-8.146 3.597zm.482-8.536v7.622c2.655-.122 5.07-1.22 6.94-3.11v-1.89c0-.915-.604-1.708-1.448-1.89l-2.716-.732h-2.776z" fill="#EA2A8A"/><path d="M19.791 26.585c-3.138 0-6.034-1.28-8.146-3.536a.468.468 0 01-.12-.305V20.67c0-1.342.904-2.44 2.111-2.805l2.776-.732h3.379c.241 0 .483.183.483.488v8.537c0 .243-.242.426-.483.426zm-7.362-4.024c1.87 1.89 4.285 2.988 6.94 3.11v-7.622h-2.716l-2.715.731c-.845.244-1.448 1.037-1.448 1.89v1.89h-.06z" fill="#EA2A8A"/><path d="M33.672 35.915c1.333 0 2.413-1.092 2.413-2.44 0-1.346-1.08-2.438-2.413-2.438-1.333 0-2.414 1.092-2.414 2.439s1.08 2.439 2.414 2.439z" fill="#FFDAEC"/><path d="M33.67 36.341a.478.478 0 01-.482-.488 1.955 1.955 0 00-1.931-1.95.478.478 0 01-.483-.489c0-.244.181-.487.483-.487 1.086 0 1.93-.915 1.93-1.952 0-.244.182-.487.484-.487.241 0 .482.183.482.487 0 1.098.906 1.952 1.931 1.952.242 0 .483.183.483.487a.479.479 0 01-.483.488c-1.086 0-1.93.915-1.93 2.012 0 .244-.242.427-.483.427zm-.844-2.866c.362.244.664.55.845.854.241-.366.543-.67.844-.854-.362-.244-.663-.548-.844-.853-.242.305-.483.61-.845.853z" fill="#EA2A8A"/><path d="M36.688 25.548c1.332 0 2.413-1.092 2.413-2.439s-1.08-2.439-2.413-2.439c-1.334 0-2.414 1.092-2.414 2.44 0 1.346 1.08 2.438 2.413 2.438z" fill="#FFDAEC"/><path d="M36.687 25.976a.478.478 0 01-.483-.488 1.954 1.954 0 00-1.931-1.951.478.478 0 01-.483-.488c0-.244.181-.488.483-.488 1.086 0 1.93-.915 1.93-1.951a.48.48 0 01.484-.488c.24 0 .482.183.482.488 0 1.097.905 1.95 1.931 1.95a.48.48 0 01.483.489.479.479 0 01-.483.488c-1.086 0-1.93.914-1.93 1.95a.478.478 0 01-.483.489zm-.845-2.866c.362.244.663.548.845.853.24-.366.543-.67.844-.853-.362-.244-.663-.55-.844-.854-.242.305-.483.61-.845.854z" fill="#EA2A8A"/><path d="M33.672 5.366c1.333 0 2.413-1.092 2.413-2.44 0-1.346-1.08-2.438-2.413-2.438-1.333 0-2.414 1.092-2.414 2.439s1.08 2.439 2.414 2.439z" fill="#FFDAEC"/><path d="M33.67 5.854a.478.478 0 01-.482-.488 1.955 1.955 0 00-1.931-1.951.478.478 0 01-.483-.488c0-.244.181-.427.483-.427 1.086 0 1.93-.914 1.93-1.95a.48.48 0 01.484-.489c.241 0 .482.183.482.488 0 1.098.906 1.951 1.931 1.951.242 0 .483.183.483.427a.479.479 0 01-.483.488c-1.086 0-1.93.915-1.93 1.951a.478.478 0 01-.483.488zm-.844-2.927c.362.244.664.549.845.854.241-.366.543-.67.844-.854-.362-.244-.663-.549-.844-.853-.242.365-.483.67-.845.853z" fill="#EA2A8A"/><path d="M2.898 25.549c1.333 0 2.413-1.092 2.413-2.44 0-1.346-1.08-2.438-2.413-2.438-1.333 0-2.414 1.092-2.414 2.439s1.08 2.439 2.414 2.439z" fill="#FFDAEC"/><path d="M2.896 25.976a.478.478 0 01-.482-.488 1.954 1.954 0 00-1.931-1.951.478.478 0 01-.483-.488c0-.244.181-.488.483-.488 1.086 0 1.93-.915 1.93-1.951a.48.48 0 01.483-.488c.302 0 .483.183.483.488 0 1.097.905 1.951 1.931 1.951.241 0 .483.183.483.488a.479.479 0 01-.483.488c-1.086 0-1.93.914-1.93 1.95a.478.478 0 01-.484.489zm-.844-2.866c.362.244.663.549.844.853.242-.365.544-.67.845-.853-.362-.244-.664-.549-.845-.854-.241.305-.482.61-.844.854z" fill="#EA2A8A"/><path d="M4.103 8.415c1.333 0 2.414-1.092 2.414-2.44 0-1.346-1.081-2.438-2.414-2.438-1.333 0-2.414 1.092-2.414 2.439s1.08 2.439 2.414 2.439z" fill="#FFDAEC"/><path d="M4.106 8.902a.478.478 0 01-.483-.487 1.954 1.954 0 00-1.931-1.952.478.478 0 01-.483-.487c0-.244.181-.488.483-.488 1.086 0 1.931-.915 1.931-1.951 0-.244.181-.488.483-.488.301 0 .482.183.482.488 0 1.097.906 1.95 1.931 1.95a.48.48 0 01.483.489.479.479 0 01-.483.487c-1.086 0-1.93.915-1.93 1.952a.478.478 0 01-.483.487zM3.26 5.976c.362.244.664.548.845.853.241-.366.543-.67.845-.853-.363-.244-.664-.55-.845-.854-.242.366-.483.67-.845.854z" fill="#EA2A8A"/><path d="M5.913 39.573c1.334 0 2.414-1.092 2.414-2.439s-1.08-2.44-2.413-2.44c-1.334 0-2.414 1.093-2.414 2.44s1.08 2.439 2.413 2.439z" fill="#FFDAEC"/><path d="M5.912 40a.478.478 0 01-.483-.488 1.955 1.955 0 00-1.93-1.951.478.478 0 01-.483-.488c0-.244.18-.488.483-.488 1.086 0 1.93-.914 1.93-1.95a.48.48 0 01.483-.489c.242 0 .483.183.483.488 0 1.098.905 1.951 1.93 1.951a.48.48 0 01.484.488.479.479 0 01-.483.488c-1.086 0-1.931.915-1.931 1.951a.478.478 0 01-.483.488zm-.845-2.866c.363.244.664.549.845.854.242-.366.543-.671.845-.854-.362-.244-.664-.549-.845-.854-.241.305-.482.61-.845.854z" fill="#EA2A8A"/><path d="M19.793 20.67s3.198-1.767 3.259-3.109c-.664-.366-1.207-.975-1.328-1.768 0-.122-.06-.854-.06-.915h-3.742c0 .122-.06.854-.06.976-.12.732-.664 1.402-1.327 1.707.06 1.342 3.258 3.11 3.258 3.11z" fill="#FFDAEC"/><path d="M21.723 15.793c0-.122-.06-.854-.06-.915H19.55c0 .122.242.793.242.915.06.67.664 1.463 1.086 1.951a.787.787 0 01.241.61c-.12 1.036-1.146 2.012-1.448 2.317.06.06.12.06.12.06s3.199-1.767 3.26-3.109c-.664-.427-1.208-1.036-1.328-1.83z" fill="#fff"/><path d="M19.792 21.098c-.06 0-.12 0-.242-.061-.603-.305-3.439-1.952-3.5-3.476 0-.183.121-.366.242-.427.543-.305.965-.793 1.086-1.402 0-.061 0-.366.06-.55v-.365c0-.244.242-.427.423-.427h3.741c.241 0 .422.183.422.427v.915c.121.61.544 1.158 1.087 1.463.18.061.241.244.241.427 0 1.524-2.896 3.17-3.5 3.476h-.06zm-2.716-3.293c.302.67 1.69 1.707 2.716 2.317 1.086-.61 2.474-1.646 2.715-2.317-.664-.427-1.146-1.159-1.267-1.89 0-.061 0-.244-.06-.55h-2.836c0 .367 0 .55-.06.61a2.693 2.693 0 01-1.208 1.83z" fill="#EA2A8A"/><path d="M23.595 11.647c0-2.5-1.69-3.964-3.74-3.964-2.113 0-3.742 1.464-3.742 3.964s1.69 4.573 3.741 4.573c2.052 0 3.741-2.073 3.741-4.573z" fill="#FFDAEC"/><path d="M20.698 7.744c.302.548.483 1.22.483 2.012 0 2.5-1.69 4.573-3.741 4.573-.242 0-.423 0-.664-.061.664 1.159 1.81 1.89 3.078 1.89 2.112 0 3.74-2.073 3.74-4.573 0-2.073-1.266-3.475-2.896-3.841z" fill="#fff"/><path d="M19.792 10.67c-1.509-.67-2.655-.792-3.5-.67-.181.488-.241.976-.241 1.585 0 2.5 1.69 4.573 3.74 4.573 2.113 0 3.742-2.073 3.742-4.573 0-.305 0-.61-.06-.853a4.317 4.317 0 01-3.681-.061z" fill="#FFDAEC"/><path d="M23.473 10.732c-.362.122-.724.244-1.147.305-.241 2.195-1.81 3.902-3.74 3.902a3.121 3.121 0 01-1.75-.549c.663 1.037 1.75 1.769 2.956 1.769 2.112 0 3.741-2.074 3.741-4.574.06-.244 0-.548-.06-.853z" fill="#fff"/><path d="M19.79 16.647c-2.353 0-4.223-2.256-4.223-5 0-.61.12-1.22.301-1.768.06-.183.181-.244.362-.305 1.087-.183 2.354.06 3.742.67 1.025.488 2.172.488 3.319.061a.38.38 0 01.361 0c.121.061.181.183.242.305.06.305.06.61.06.976.06 2.805-1.81 5.06-4.163 5.06zm-3.137-6.22c-.12.366-.181.732-.181 1.159 0 2.256 1.508 4.146 3.319 4.146 1.81 0 3.318-1.829 3.318-4.146v-.244c-1.206.366-2.413.244-3.5-.244-1.086-.488-2.111-.732-2.956-.67z" fill="#EA2A8A"/><path d="M19.79 16.647c-2.353 0-4.223-2.256-4.223-5 0-2.622 1.75-4.39 4.224-4.39s4.224 1.829 4.224 4.39c0 2.744-1.871 5-4.224 5zm0-8.537c-1.99 0-3.318 1.403-3.318 3.537 0 2.256 1.508 4.146 3.319 4.146 1.81 0 3.318-1.83 3.318-4.146 0-2.134-1.327-3.537-3.318-3.537z" fill="#EA2A8A"/><path d="M19.79 30.244c-.723 0-1.387-.366-1.81-.976-.422-.61-1.206-.731-1.81-.366-.603.366-1.387.427-2.051.183A2.333 2.333 0 0112.79 27.5c-.18-.67-.845-1.159-1.569-1.037-.724.122-1.448-.122-1.99-.67-.544-.55-.725-1.22-.665-2.012.121-.732-.362-1.403-1.026-1.586-.724-.183-1.267-.67-1.568-1.341a2.123 2.123 0 01.18-2.073c.363-.61.242-1.403-.361-1.83a2.236 2.236 0 01-.966-1.83c0-.73.362-1.402.966-1.828.603-.427.724-1.22.362-1.83-.362-.61-.423-1.402-.181-2.073.301-.67.844-1.158 1.569-1.341.663-.183 1.146-.854 1.025-1.586-.12-.731.121-1.463.664-2.012.543-.549 1.207-.792 1.991-.67.725.121 1.388-.366 1.57-1.037a2.333 2.333 0 011.327-1.585 2.064 2.064 0 012.051.182c.604.366 1.388.244 1.81-.365C18.404.366 19.068 0 19.79 0c.725 0 1.389.366 1.811.976.423.61 1.207.731 1.81.365.604-.365 1.388-.426 2.052-.182a2.333 2.333 0 011.328 1.585c.18.67.844 1.158 1.569 1.036.724-.121 1.448.122 1.99.671.544.549.725 1.22.665 2.012-.121.732.362 1.403 1.025 1.586.724.183 1.268.67 1.57 1.341.301.671.24 1.464-.182 2.073-.362.61-.241 1.403.362 1.83.604.427.966 1.097.966 1.829s-.362 1.402-.966 1.83c-.603.426-.724 1.219-.362 1.828.362.61.423 1.403.181 2.074-.301.67-.845 1.158-1.569 1.341-.663.183-1.146.854-1.025 1.585.12.732-.121 1.464-.664 2.013-.543.549-1.207.731-1.991.67-.725-.122-1.388.366-1.57 1.037a2.333 2.333 0 01-1.327 1.585 2.064 2.064 0 01-2.052-.183c-.603-.365-1.387-.244-1.81.366-.422.61-1.086.976-1.81.976zm-2.956-2.44c.724 0 1.388.306 1.87.916.242.365.665.548 1.087.548.422 0 .845-.183 1.086-.549.664-.975 1.991-1.219 3.017-.61.362.245.845.245 1.207.123.422-.183.724-.55.785-.976.301-1.158 1.387-1.951 2.594-1.707.423.06.845-.061 1.207-.366.302-.305.483-.732.362-1.22-.18-1.158.543-2.317 1.69-2.622.422-.122.784-.426.965-.792.181-.427.12-.854-.12-1.28-.604-1.037-.363-2.379.603-3.05.362-.243.543-.67.543-1.097 0-.427-.181-.854-.543-1.098-.966-.67-1.207-2.012-.603-3.048.24-.366.24-.854.12-1.28-.18-.428-.543-.733-.965-.794-1.147-.304-1.931-1.402-1.69-2.622.06-.426-.06-.853-.362-1.219-.302-.305-.724-.427-1.207-.366a2.326 2.326 0 01-2.595-1.707 1.596 1.596 0 00-.784-.976 1.22 1.22 0 00-1.207.122c-1.026.61-2.353.366-3.017-.61-.241-.365-.664-.548-1.086-.548-.422 0-.845.183-1.086.548-.664.976-1.991 1.22-3.017.61-.362-.244-.845-.244-1.207-.122-.423.183-.724.549-.785.976-.301 1.158-1.387 1.951-2.594 1.707-.423-.06-.845.061-1.207.366-.302.305-.483.732-.362 1.22.18 1.158-.543 2.317-1.69 2.621a1.586 1.586 0 00-.965.793c-.181.427-.12.854.12 1.28.604 1.037.362 2.379-.603 3.05-.362.243-.543.67-.543 1.097 0 .427.181.854.543 1.098.966.67 1.207 2.012.603 3.048-.24.366-.24.854-.12 1.28.18.428.543.733.965.794 1.147.304 1.87 1.402 1.69 2.621-.06.427.06.854.362 1.22.302.305.724.488 1.207.366a2.326 2.326 0 012.594 1.707c.121.427.423.793.785.976a1.22 1.22 0 001.207-.122c.362-.183.784-.305 1.146-.305z" fill="#EA2A8A"/></g><defs><clipPath id="clip0_0_345"><path fill="#fff" d="M0 0h39.999v40H0z"/></clipPath></defs></svg>