<svg width="40" height="40" viewBox="0 0 40 40" fill="none" xmlns="http://www.w3.org/2000/svg"><g clip-path="url(#clip0_0_544)"><path d="M7.161 30c3.955 0 7.161-3.182 7.161-7.107 0-3.925-3.206-7.106-7.16-7.106C3.205 15.787 0 18.968 0 22.893S3.206 30 7.161 30zm17.902-17.817c3.39 0 6.138-2.727 6.138-6.092C31.201 2.727 28.453 0 25.063 0c-3.39 0-6.138 2.727-6.138 6.091 0 3.365 2.748 6.092 6.138 6.092zM29.77 40C35.42 40 40 35.455 40 29.848c0-5.607-4.58-10.153-10.23-10.153s-10.23 4.546-10.23 10.153S24.12 40 29.77 40z" fill="#EA2A8A"/><g clip-path="url(#clip1_0_544)"><path d="M31.875 26.626L28.7 25.567l-2.21 2.21v7.954h8.838v-4.314a5.05 5.05 0 00-3.453-4.791zm-20.979-1.059l-3.175 1.059a5.05 5.05 0 00-3.453 4.79v4.315h8.838v-7.954l-2.21-2.21z" fill="#FBDFEC"/><path d="M16.466 27.192l2.07 8.54h2.526l2.07-8.54h-6.666z" fill="#EA2A8A"/><path d="M19.797 14.898l-5.98.715.427 4.613a5.557 5.557 0 001.312 3.072l-.033.008.941 3.886.029-.007c.885 1.046 2.04 1.854 3.304 1.854 1.264 0 2.418-.808 3.304-1.854l.029.007.941-3.886-.033-.008a5.557 5.557 0 001.312-3.072l.426-4.612-5.979-.716z" fill="#FFB8DA"/><path d="M30.278 23.99l-3.788 3.787 3.788 2.525-3.788 5.43h-5.43l3.012-12.425-.033-.008a5.554 5.554 0 001.273-2.766l4.966 3.456z" fill="#FFB8DA"/><path d="M26.066 8.988c.03-.384.045-.774.045-1.17 0-5.404-2.826-2.21-6.313-2.21-3.487 0-6.313-3.194-6.313 2.21 0 .396.015.786.045 1.17-3.799.653-6.358 1.881-6.358 3.289 0 1.442 2.69 2.697 6.647 3.336 1.78.288 3.815.452 5.979.452s4.2-.164 5.98-.452c3.957-.639 6.646-1.894 6.646-3.336 0-1.408-2.56-2.636-6.358-3.29z" fill="#FBDFEC"/><path d="M18.535 35.732h-5.429l-3.788-5.43 3.788-2.525-3.788-3.788 4.966-3.456a5.56 5.56 0 001.273 2.766l-.033.008 3.011 12.425z" fill="#FFB8DA"/><path d="M22.45 10.37a.629.629 0 00.505-.618.63.63 0 00-.63-.63.63.63 0 10.126 1.249zm-5.116-.164c1.16.113 1.174.177 2.465.177a.631.631 0 100-1.263c-1.21 0-1.147-.054-2.342-.17a.631.631 0 10-.123 1.256z" fill="#EA2A8A"/><path d="M4.268 36.363h31.06a.631.631 0 00.632-.631v-4.315a5.674 5.674 0 00-3.885-5.39l-2.207-.736.856-.855a.63.63 0 00-.086-.965l-4.654-3.239.377-4.078c2.342-.421 6.695-1.523 6.695-3.877 0-2.282-4.08-3.376-6.327-3.81.009-.215.013-.432.013-.649 0-1.835-.315-2.89-1.022-3.418-.85-.635-1.975-.303-3.166.049-.838.248-1.788.528-2.756.528-.968 0-1.918-.28-2.756-.528-1.191-.352-2.316-.684-3.166-.05-.707.53-1.022 1.584-1.022 3.42 0 .217.004.434.013.649-2.254.434-6.327 1.529-6.327 3.809 0 2.354 4.353 3.456 6.695 3.877l.377 4.078-4.654 3.239a.631.631 0 00-.086.965l.856.855-2.207.736a5.674 5.674 0 00-3.885 5.39v4.315c0 .348.283.63.632.63zm20.455-16.198a4.945 4.945 0 01-4.925 4.456 4.946 4.946 0 01-4.924-4.453l-.353-3.813c1.651.224 3.458.341 5.277.341 1.82 0 3.626-.117 5.277-.34l-.352 3.809zm-4.925 5.718a6.205 6.205 0 003.218-.898l-.45 1.855c-.533.614-1.556 1.568-2.768 1.568-1.212 0-2.235-.954-2.768-1.568l-.45-1.855c.96.581 2.07.898 3.218.898zm0 3.788c.755 0 1.523-.247 2.255-.713L20.564 35.1h-1.532l-1.489-6.142c.732.466 1.5.713 2.255.713zm11.877-2.446a4.413 4.413 0 013.022 4.192V35.1H27.7l3.096-4.437a.631.631 0 00-.168-.886l-3.147-2.098 1.389-1.39 2.805.936zm-5.631.106a.631.631 0 00.096.971l3.251 2.168-3.23 4.63h-4.298l2.805-11.573a6.19 6.19 0 001.041-1.948l3.589 2.497-3.254 3.255zM14.632 5.41c.343-.256 1.173-.01 2.052.249.92.272 1.963.58 3.114.58 1.15 0 2.194-.308 3.114-.58.879-.26 1.71-.505 2.052-.249.193.144.516.648.516 2.407 0 1.163-.14 2.353-.43 3.48a38.11 38.11 0 01-5.252.348c-1.842 0-3.606-.117-5.251-.348a14.016 14.016 0 01-.43-3.48c0-1.759.322-2.263.515-2.407zm-6.829 6.866c0-.777 1.772-1.868 5.168-2.543.097.792.254 1.566.47 2.306.07.235.268.409.51.446 1.822.28 3.79.422 5.847.422 2.057 0 4.025-.142 5.847-.422a.631.631 0 00.51-.446c.216-.74.373-1.514.47-2.306 3.396.675 5.168 1.766 5.168 2.543 0 .858-2.101 2.065-6.117 2.713-1.792.29-3.825.444-5.878.444s-4.086-.154-5.879-.444c-4.015-.648-6.116-1.855-6.116-2.713zm6.083 9.302a6.19 6.19 0 001.042 1.948L17.733 35.1h-4.298l-3.23-4.63 3.251-2.168a.63.63 0 00.096-.971l-3.254-3.255 3.588-2.497zM4.9 31.417a4.413 4.413 0 013.022-4.192l2.805-.935 1.39 1.389-3.148 2.098a.631.631 0 00-.168.886l3.096 4.437H4.899v-3.683z" fill="#EA2A8A"/><path d="M7.342 20.797a.412.412 0 01-.416-.42c0-.945-.779-1.68-1.662-1.68a.412.412 0 01-.416-.42c0-.21.156-.42.416-.42.935 0 1.662-.787 1.662-1.68 0-.21.156-.42.416-.42.208 0 .416.158.416.42 0 .945.779 1.68 1.662 1.68.208 0 .416.158.416.42 0 .21-.156.42-.416.42-.935 0-1.662.788-1.662 1.733 0 .21-.208.367-.416.367zm-.727-2.467c.311.21.571.472.727.735.208-.315.468-.578.727-.735a2.433 2.433 0 01-.727-.735c-.208.262-.416.525-.727.735zm26.99 7.315a.412.412 0 01-.416-.42c0-.944-.78-1.68-1.662-1.68a.412.412 0 01-.416-.42c0-.21.156-.42.416-.42.935 0 1.662-.787 1.662-1.679 0-.21.156-.42.416-.42.207 0 .415.158.415.42 0 .945.78 1.68 1.662 1.68.208 0 .416.157.416.42 0 .21-.156.42-.416.42-.935 0-1.662.787-1.662 1.732 0 .21-.208.367-.415.367zm-.728-2.467c.312.21.572.473.728.735.207-.315.467-.577.727-.735a2.434 2.434 0 01-.727-.735c-.208.263-.416.525-.728.735z" fill="#EA2A8A"/></g><path d="M35.626 11.047a.412.412 0 01-.415-.42c0-.944-.78-1.68-1.663-1.68a.412.412 0 01-.415-.42c0-.21.156-.367.415-.367.935 0 1.663-.787 1.663-1.68 0-.21.156-.42.415-.42.208 0 .416.158.416.42 0 .945.78 1.68 1.662 1.68.208 0 .416.158.416.368s-.156.42-.416.42c-.935 0-1.662.787-1.662 1.68 0 .262-.208.42-.416.42zm-.727-2.52c.312.21.572.473.727.736.208-.315.468-.578.728-.735a2.435 2.435 0 01-.728-.735c-.207.315-.415.577-.727.735z" fill="#EA2A8A"/></g><defs><clipPath id="clip0_0_544"><path fill="#fff" d="M0 0h39.999v40H0z"/></clipPath><clipPath id="clip1_0_544"><path fill="#fff" transform="translate(3.636 4.04)" d="M0 0h32.323v32.323H0z"/></clipPath></defs></svg>