<svg width="40" height="40" viewBox="0 0 40 40" fill="none" xmlns="http://www.w3.org/2000/svg"><g clip-path="url(#clip0_0_637)"><path d="M8.958 38.979a.412.412 0 01-.415-.42c0-.945-.78-1.68-1.663-1.68a.412.412 0 01-.415-.42c0-.21.155-.42.415-.42.935 0 1.663-.787 1.663-1.68 0-.21.155-.42.415-.42.208 0 .416.158.416.42 0 .945.779 1.68 1.662 1.68.208 0 .416.158.416.42 0 .21-.156.42-.416.42-.935 0-1.662.787-1.662 1.732 0 .21-.208.368-.416.368zm-.727-2.467c.312.21.571.472.727.734.208-.315.468-.577.727-.734a2.435 2.435 0 01-.727-.735c-.208.262-.415.525-.727.735zM7.161 30c3.955 0 7.161-3.182 7.161-7.107 0-3.925-3.206-7.106-7.16-7.106C3.205 15.787 0 18.968 0 22.893S3.206 30 7.161 30zm17.902-17.817c3.39 0 6.138-2.727 6.138-6.092C31.201 2.727 28.453 0 25.063 0c-3.39 0-6.138 2.727-6.138 6.091 0 3.365 2.748 6.092 6.138 6.092zM29.77 40C35.42 40 40 35.455 40 29.848c0-5.607-4.58-10.153-10.23-10.153s-10.23 4.546-10.23 10.153S24.12 40 29.77 40z" fill="#EA2A8A"/><g clip-path="url(#clip1_0_637)"><path d="M27.184 4.514H12.412a.632.632 0 00-.628.568c-.267 2.566-2.323 4.605-4.91 4.868a.632.632 0 00-.57.628v7.07c0 8.497 5.578 15.703 13.301 18.212.126.04.262.04.388 0 7.723-2.508 13.3-9.715 13.3-18.213v-7.069a.632.632 0 00-.568-.628c-2.588-.263-4.644-2.302-4.911-4.868a.632.632 0 00-.628-.568z" fill="#FFB8DA"/><path d="M32.725 9.95c-2.588-.263-4.644-2.302-4.911-4.868a.632.632 0 00-.628-.568H25.29c.324 0 .594.246.628.568.267 2.566 2.324 4.605 4.91 4.868a.632.632 0 01.57.628v7.07c0 8.218-5.218 15.228-12.547 17.949.25.092.5.18.754.262a.63.63 0 00.388 0c7.723-2.508 13.3-9.714 13.3-18.212v-7.069a.632.632 0 00-.568-.628z" fill="#FBDFEC"/><path d="M19.886 33.422a.254.254 0 01-.177 0 17.129 17.129 0 01-7.703-5.738 16.593 16.593 0 01-3.348-10.037v-5.506c0-.11.07-.206.175-.24a7.87 7.87 0 004.917-4.878.254.254 0 01.24-.173h11.616c.109 0 .204.07.24.173a7.87 7.87 0 004.917 4.877.253.253 0 01.174.24v5.507c0 3.65-1.157 7.12-3.347 10.037a17.128 17.128 0 01-7.704 5.738z" fill="#FFB8DA"/><path d="M24.127 26.56H15.47a1.896 1.896 0 01-1.896-1.895v-5.498c0-1.047.849-1.896 1.896-1.896h8.657c1.047 0 1.896.849 1.896 1.896v5.497a1.896 1.896 0 01-1.896 1.896z" fill="#FFB8DA"/><path d="M24.128 17.27h-1.895c1.047 0 1.895.85 1.895 1.897v5.497a1.896 1.896 0 01-1.895 1.896h1.895a1.896 1.896 0 001.896-1.895v-5.498a1.896 1.896 0 00-1.896-1.896z" fill="#FBDFEC"/><path d="M21.031 20.965a1.232 1.232 0 10-2.226.729c.03.041.046.093.046.145v1.312a.948.948 0 001.896 0v-1.312c0-.052.015-.103.045-.145.15-.204.24-.456.24-.729z" fill="#FFB8DA"/><path d="M30.914 11.451a7.418 7.418 0 01-4.62-4.582.729.729 0 00-.689-.493H13.99a.729.729 0 00-.688.493 7.418 7.418 0 01-4.62 4.582.728.728 0 00-.497.69v5.506a17.06 17.06 0 003.442 10.321 17.695 17.695 0 007.918 5.898.73.73 0 00.506 0 17.604 17.604 0 007.047-4.83.474.474 0 00-.71-.627 16.655 16.655 0 01-6.59 4.54 16.738 16.738 0 01-7.413-5.55 16.123 16.123 0 01-3.253-9.752v-5.35a8.377 8.377 0 005.015-4.973H25.45a8.377 8.377 0 005.014 4.974v5.35c0 3.232-.947 6.354-2.738 9.026a.474.474 0 10.788.528 17.1 17.1 0 002.898-9.555v-5.506c0-.312-.2-.59-.497-.69zm-12.539 11.7a1.423 1.423 0 002.844 0v-1.243a1.708 1.708 0 00-.25-2.183 1.693 1.693 0 00-1.271-.463 1.712 1.712 0 00-1.6 1.55 1.71 1.71 0 00.277 1.096v1.242zm.667-2.256a.76.76 0 111.367.518.713.713 0 00-.138.425v1.312a.474.474 0 01-.948 0v-1.312a.713.713 0 00-.137-.425.75.75 0 01-.144-.518zM32.771 9.478c-2.357-.24-4.245-2.109-4.488-4.445a1.104 1.104 0 00-1.1-.993H12.412c-.568 0-1.04.427-1.1.993-.243 2.336-2.13 4.206-4.487 4.445-.567.058-.995.53-.995 1.1v7.07c0 4.221 1.33 8.245 3.848 11.634a19.793 19.793 0 004.313 4.253 19.758 19.758 0 005.467 2.775c.22.072.461.072.68 0a19.762 19.762 0 005.468-2.775 19.79 19.79 0 004.313-4.253 19.377 19.377 0 003.848-11.635v-7.069c0-.57-.428-1.042-.995-1.1zm.047 8.17c0 4.016-1.266 7.844-3.661 11.069a18.754 18.754 0 01-9.312 6.692.156.156 0 01-.095 0 18.754 18.754 0 01-9.312-6.692 18.436 18.436 0 01-3.661-11.07v-7.069c0-.081.061-.148.143-.157 2.801-.285 5.045-2.51 5.334-5.29a.158.158 0 01.157-.143h14.773c.08 0 .148.062.156.143.29 2.78 2.533 5.005 5.335 5.29a.158.158 0 01.143.157v7.07zm-16.864-5.594a.474.474 0 10-.802-.504 5.464 5.464 0 00-.84 2.913v2.636a2.371 2.371 0 00-1.213 2.068v5.497a2.372 2.372 0 002.37 2.37h8.657a2.372 2.372 0 002.37-2.37v-5.497a2.37 2.37 0 00-1.214-2.068v-2.636a5.49 5.49 0 00-5.485-5.485 5.46 5.46 0 00-2.94.857.474.474 0 10.51.799 4.515 4.515 0 012.43-.708 4.542 4.542 0 014.537 4.537v2.344a2.384 2.384 0 00-.208-.01h-.74v-2.334c0-.959-.373-1.86-1.052-2.538a3.567 3.567 0 00-2.537-1.051 3.593 3.593 0 00-3.588 3.589v2.334h-.74c-.07 0-.14.003-.208.01v-2.344c0-.854.24-1.687.693-2.409zm1.203 2.409a2.644 2.644 0 012.64-2.641c.705 0 1.368.275 1.867.773.5.499.774 1.162.774 1.868v2.334h-5.281v-2.334zm-1.688 3.282h8.657c.784 0 1.422.638 1.422 1.422v5.497c0 .784-.638 1.422-1.422 1.422h-8.657a1.423 1.423 0 01-1.422-1.422v-5.497c0-.784.638-1.422 1.422-1.422z" fill="#EA2A8A"/></g><path d="M35.626 11.047a.412.412 0 01-.415-.42c0-.944-.78-1.68-1.663-1.68a.412.412 0 01-.415-.42c0-.21.156-.367.415-.367.935 0 1.663-.787 1.663-1.68 0-.21.156-.42.415-.42.208 0 .416.158.416.42 0 .945.78 1.68 1.662 1.68.208 0 .416.158.416.368s-.156.42-.416.42c-.935 0-1.662.787-1.662 1.68 0 .262-.208.42-.416.42zm-.727-2.52c.312.21.572.473.727.736.208-.315.468-.578.728-.735a2.435 2.435 0 01-.728-.735c-.207.315-.415.577-.727.735zM3.704 31.706a.412.412 0 01-.415-.42c0-.945-.78-1.68-1.662-1.68a.412.412 0 01-.416-.42c0-.21.156-.42.416-.42.935 0 1.662-.787 1.662-1.68 0-.209.156-.419.415-.419.208 0 .416.157.416.42 0 .945.78 1.68 1.662 1.68.208 0 .416.157.416.42 0 .21-.156.42-.416.42-.935 0-1.662.787-1.662 1.732 0 .21-.208.367-.416.367zm-.727-2.467c.312.21.572.473.727.735a2.44 2.44 0 01.728-.735 2.435 2.435 0 01-.728-.735c-.207.263-.415.525-.727.735z" fill="#EA2A8A"/></g><defs><clipPath id="clip0_0_637"><path fill="#fff" d="M0 0h39.999v40H0z"/></clipPath><clipPath id="clip1_0_637"><path fill="#fff" transform="translate(3.636 4.04)" d="M0 0h32.323v32.323H0z"/></clipPath></defs></svg>