<svg width="40" height="40" viewBox="0 0 40 40" fill="none" xmlns="http://www.w3.org/2000/svg"><g clip-path="url(#clip0_0_265)"><path d="M7.161 30c3.955 0 7.161-3.182 7.161-7.107 0-3.925-3.206-7.106-7.16-7.106C3.205 15.787 0 18.968 0 22.893S3.206 30 7.161 30zm17.902-17.817c3.39 0 6.138-2.727 6.138-6.092C31.201 2.727 28.453 0 25.063 0c-3.39 0-6.138 2.727-6.138 6.091 0 3.365 2.748 6.092 6.138 6.092zM29.77 40C35.42 40 40 35.455 40 29.848c0-5.607-4.58-10.153-10.23-10.153s-10.23 4.546-10.23 10.153S24.12 40 29.77 40z" fill="#EA2A8A"/><path d="M34.225 19.914l-27.202-2.98-1.795 16.147 27.201 2.979 1.796-16.146z" fill="#FBDFEC"/><path d="M32.379 36.04l-16.266-1.776c.665-6.04 6.138-10.355 12.174-9.695l5.268.558-1.176 10.914z" fill="#FFB8DA"/><path d="M32.378 36.447L5.115 33.452a.282.282 0 01-.256-.153c-.05-.101-.102-.203-.102-.304l1.79-16.142c0-.203.205-.356.41-.356l27.212 2.995c.204 0 .358.203.358.406l-1.79 16.143a.279.279 0 01-.154.253c0 .102-.102.153-.205.153zM5.627 32.74l26.445 2.893 1.688-15.38L7.315 17.36 5.626 32.741z" fill="#EA2A8A"/><path d="M33.633 12.136L7.418 16.291l2.38 14.788 26.215-4.155-2.38-14.787z" fill="#FBDFEC"/><path d="M36.065 26.903l-23.07 3.655c-1.33-8.172 4.297-15.837 12.532-17.106l8.185-1.32 2.352 14.771z" fill="#FFB8DA"/><path d="M9.822 31.472c-.103 0-.154-.05-.205-.05a.279.279 0 01-.153-.254L7.11 16.396c-.052-.203.102-.406.307-.457l26.24-4.162c.102 0 .204 0 .307.05a.28.28 0 01.153.254l2.353 14.772c.051.203-.102.406-.307.457l-26.24 4.162h-.102zM7.878 16.6l2.25 14.01 25.474-4.06-2.251-14.01L7.878 16.6z" fill="#EA2A8A"/><path d="M34.126 10.229L5.653 7.11l-1.7 15.29 28.473 3.118 1.7-15.288z" fill="#FBDFEC"/><path d="M32.432 25.533l-13.35-1.472c.665-5.94 6.035-10.254 12.02-9.594l2.506.254-1.176 10.812z" fill="#FFB8DA"/><path d="M32.431 25.889s-.051 0 0 0L3.889 22.792a.282.282 0 01-.256-.152c-.051-.101-.102-.203-.102-.305L5.219 7.056c0-.203.204-.355.409-.355l28.491 3.096c.205 0 .358.204.358.406l-1.688 15.28a.279.279 0 01-.153.253c-.052.153-.103.153-.205.153zm-28.03-3.807l27.723 3.045 1.637-14.517L6.037 7.564 4.4 22.082z" fill="#EA2A8A"/><path d="M36.675 3.553H8.03v16.244h28.645V3.553z" fill="#FBDFEC"/><path d="M36.679 19.797H15.195c0-8.984 7.315-16.243 16.369-16.243h5.115v16.243z" fill="#FFB8DA"/><path d="M36.675 20.203H8.031a.402.402 0 01-.41-.406V3.553c0-.203.154-.406.41-.406h28.644c.205 0 .41.152.41.406v16.244c0 .203-.205.406-.41.406zM8.44 19.442h27.877V3.959H8.44v15.483z" fill="#EA2A8A"/><path d="M31.558 17.258H13.143c0-1.421-1.125-2.538-2.557-2.538V8.63c1.432 0 2.557-1.117 2.557-2.538h18.415c0 1.421 1.125 2.538 2.557 2.538v6.091c-1.38 0-2.557 1.117-2.557 2.538z" fill="#FBDFEC"/><path d="M31.561 17.259H19.797c0-6.193 5.064-11.168 11.253-11.168h.511c0 1.421 1.126 2.538 2.558 2.538v6.091c-1.381 0-2.558 1.117-2.558 2.539z" fill="#FFB8DA"/><path d="M31.557 17.664H13.142a.402.402 0 01-.409-.406c0-1.167-.972-2.132-2.148-2.132a.402.402 0 01-.41-.406V8.63c0-.203.154-.406.41-.406 1.176 0 2.148-.965 2.148-2.183 0-.203.154-.406.41-.406h18.414c.205 0 .41.152.41.406 0 1.167.97 2.183 2.147 2.183.205 0 .41.152.41.406v6.091a.402.402 0 01-.41.406c-1.176 0-2.148.965-2.148 2.132 0 .203-.204.406-.41.406zM13.5 16.903h17.698c.153-1.32 1.227-2.335 2.557-2.538V8.984c-1.33-.152-2.353-1.218-2.557-2.538H13.5c-.154 1.32-1.228 2.335-2.558 2.538v5.38c1.33.153 2.404 1.219 2.558 2.539z" fill="#EA2A8A"/><path d="M29.005 13.452c.989 0 1.79-.795 1.79-1.777 0-.98-.801-1.776-1.79-1.776s-1.79.795-1.79 1.776c0 .982.801 1.777 1.79 1.777zm-12.793 0c.99 0 1.79-.795 1.79-1.777 0-.98-.8-1.776-1.79-1.776-.988 0-1.79.795-1.79 1.776 0 .982.802 1.777 1.79 1.777z" fill="#FBDFEC"/><path d="M30.793 11.675v-.254h-.256c-.972 0-1.79.812-1.79 1.777v.254h.256c1.023 0 1.79-.813 1.79-1.777zm-12.787 0c0-.203-.051-.457-.102-.66-.205-.101-.41-.101-.666-.101-.971 0-1.79.812-1.79 1.777 0 .202.051.456.102.66.205.1.41.1.665.1 1.023 0 1.79-.811 1.79-1.776z" fill="#FFB8DA"/><path d="M29.003 13.858c-1.177 0-2.148-.965-2.148-2.132 0-1.168.971-2.132 2.148-2.132 1.176 0 2.148.965 2.148 2.132.051 1.117-.92 2.132-2.148 2.132zm0-3.553c-.767 0-1.432.609-1.432 1.421 0 .761.613 1.421 1.432 1.421.818 0 1.432-.609 1.432-1.421s-.665-1.421-1.432-1.421zm-12.787 3.553c-1.177 0-2.149-.965-2.149-2.132 0-1.168.972-2.132 2.149-2.132 1.176 0 2.148.965 2.148 2.132.051 1.117-.92 2.132-2.148 2.132zm0-3.553c-.768 0-1.433.609-1.433 1.421 0 .761.614 1.421 1.433 1.421.818 0 1.432-.609 1.432-1.421s-.665-1.421-1.432-1.421zm6.136 4.923c-.87 0-1.688-.508-1.995-1.27-.102-.202 0-.405.204-.507.205-.101.41 0 .512.203.204.457.716.813 1.279.813.767 0 1.38-.559 1.38-1.219 0-.558-.255-1.218-1.38-1.218-1.586 0-2.149-1.015-2.149-1.98 0-1.066.972-1.98 2.149-1.98.87 0 1.688.508 1.994 1.27.103.203 0 .406-.204.507-.205.102-.41 0-.512-.203a1.432 1.432 0 00-1.278-.812c-.768 0-1.381.558-1.381 1.218 0 .559.255 1.219 1.38 1.219 1.586 0 2.149 1.015 2.149 1.98 0 1.116-.972 1.979-2.148 1.979z" fill="#EA2A8A"/><path d="M22.354 8.883a.402.402 0 01-.41-.406v-.863c0-.203.154-.406.41-.406.204 0 .409.152.409.406v.863c0 .203-.205.406-.41.406zm0 7.259c-.205 0-.41-.152-.41-.355v-.863c0-.203.154-.406.41-.406.204 0 .409.152.409.406v.863c0 .152-.205.355-.41.355zm3.991 17.564s-.051 0 0 0l-7.366-.813c-.205 0-.358-.203-.358-.406s.205-.355.41-.355l7.314.812c.204 0 .358.203.358.406 0 .254-.154.355-.358.355zm3.785.456c-.052 0-.052 0 0 0l-1.842-.203c-.205 0-.358-.203-.358-.406s.204-.355.409-.355l1.79.203c.205 0 .358.203.358.406s-.204.355-.358.355zm-14.936-4.873c-.204 0-.358-.152-.358-.305l-.307-2.03c-.05-.203.103-.406.307-.457.205-.05.41.102.46.305l.308 2.03c.05.203-.103.406-.307.457h-.103z" fill="#EA2A8A"/><path d="M14.012 28.477c-.204 0-.358-.152-.358-.304-.05-.203.103-.406.307-.457l2.046-.305c.205-.05.41.102.46.305.052.203-.102.406-.306.457l-2.046.304h-.103zm4.146-.66c-.205.05-.41-.101-.46-.305-.051-.203.102-.406.307-.456.204-.051.409.101.46.304.051.254-.102.457-.307.457zm1.995-.304c-.205.05-.41-.102-.46-.305-.052-.203.102-.406.307-.456.204-.051.409.101.46.304.051.254-.102.406-.307.457zm2.556-.406c-.205.051-.41-.101-.46-.304-.052-.203.102-.407.306-.457.205-.051.41.101.46.304 0 .254-.102.457-.306.457zm3.531-.507c-.204.05-.409-.102-.46-.306-.051-.203.102-.406.307-.456.205-.051.41.101.46.304.052.203-.102.406-.306.457zm3.63-3.3l-2.097-.203c-.205 0-.358-.203-.358-.407 0-.203.204-.355.409-.355l2.046.203c.205 0 .358.203.358.406a.348.348 0 01-.358.356z" fill="#EA2A8A"/><path d="M28.747 24.213c-.256 0-.41-.203-.358-.406l.204-2.03c0-.204.205-.356.41-.356.204 0 .358.203.358.406l-.205 2.03c-.051.204-.204.356-.409.356z" fill="#EA2A8A"/></g><defs><clipPath id="clip0_0_265"><path fill="#fff" d="M0 0h39.999v40H0z"/></clipPath></defs></svg>