<svg width="337" height="357" viewBox="0 0 337 357" fill="none" xmlns="http://www.w3.org/2000/svg"><path d="M83.86 356.482h83.625v-30.869l-49.95-19.456s-1.871 11.973-6.361 21.888c-.187.562-.561 1.123-.748 1.497-.749 1.684-1.684 3.367-2.62 4.864-.374.561-.748.935-.935 1.497-1.871 2.432-4.116 4.303-6.548 5.238-6.547 2.245-10.476 5.238-12.908 7.857-.562.562-.936 1.123-1.31 1.684-2.245 3.18-2.245 5.8-2.245 5.8z" fill="#720C46"/><path d="M86.293 350.495h81.38v-1.684H87.79c-.749.561-1.123 1.123-1.497 1.684zm24.318-20.952c3.555 1.683 7.297 3.554 10.851 5.238.936.374 1.871-.936.936-1.497-3.742-1.684-7.297-3.554-11.038-5.238h-.187c0 .561-.187.935-.562 1.497zm-3.552 6.173c3.181 2.245 6.174 4.49 9.354 6.735.936.561 1.871-.935.936-1.497-2.994-2.245-6.174-4.303-9.167-6.548-.562.375-.936.936-1.123 1.31z" fill="#fff"/><path d="M11.085 266.871l75.768 35.545 2.619-5.426.748-1.496 13.657-29.185-40.783-30.681s-6.735 9.915-14.967 17.212c-.374.374-.935.748-1.31 1.122-1.496 1.123-2.993 2.245-4.49 3.18-.56.375-.935.562-1.496.749-2.806 1.496-5.425 2.245-8.044 2.058-6.922-.749-11.6.187-14.967 1.683-.748.374-1.31.562-2.058.936-3.554 2.058-4.677 4.303-4.677 4.303z" fill="#720C46"/><path d="M116.414 301.668c1.684-10.477 4.116-25.256 6.548-40.971-5.238 8.793-8.98 14.593-8.98 14.593l-60.614-29.933s17.399-34.049 42.654-78.948c25.256-44.899 80.258-27.501 133.202-9.354l-.375 1.871c19.831.187 39.661.935 59.305 2.806 12.908 1.309 25.443 3.742 37.977 6.548 1.123 39.099-1.31 66.974-28.997 68.284-35.171 1.684-106.075 0-106.075 0s1.497 48.267-7.109 77.451l-.561 1.684c-1.871 5.799-4.116 10.663-6.922 14.218l-62.859-13.283s.748-5.051 2.058-13.47c.374-.374.561-.935.748-1.496z" fill="#fff"/><path d="M177.4 331.6l.561-.748c2.807-3.555 5.051-8.419 7.109-14.78l.562-1.683c7.67-26.192 7.296-68.098 7.109-76.516 10.289.187 72.774 1.496 104.764 0 29.746-1.497 31.243-32.552 30.307-69.781v-1.123l-1.122-.187c-11.412-2.432-24.882-5.238-38.164-6.547-16.838-1.684-34.61-2.432-57.808-2.807l.187-1.496-1.122-.374c-50.699-17.399-108.32-36.855-134.885 10.102-25.069 44.338-42.467 78.574-42.654 78.948l-.562 1.309 63.046 31.243.749-1.123s2.057-3.367 5.238-8.418c-2.058 12.908-3.929 25.068-5.425 33.861 0 .374-.188.561-.188.935l-2.432 15.528L177.4 331.6zm12.347-96.533v1.496c0 .561 1.497 48.454-6.922 77.077l-.561 1.684c-1.684 5.612-3.741 9.915-6.173 13.096l-60.801-12.722 2.057-12.908c0-.375.187-.562.187-.936 1.684-10.476 4.116-25.256 6.548-40.97l1.123-7.109-3.742 6.173c-3.929 6.548-6.922 11.412-8.231 13.47l-58.182-28.81c3.367-6.548 19.643-37.978 42.093-77.639 25.256-44.525 81.005-26.004 130.395-9.166l-.375 2.245h1.684c23.759.374 42.093 1.122 59.117 2.806 12.909 1.309 25.63 3.928 36.855 6.173 1.123 41.719-3.18 64.543-27.688 65.853-34.797 1.683-105.326 0-106.074 0l-1.31.187z" fill="#E52C85"/><path d="M153.267 179.691h.187l47.331-9.541c.748-.187 1.31-.935 1.123-1.683-.188-.749-.936-1.31-1.684-1.123l-47.331 9.541c-.749.187-1.31.936-1.123 1.684.374.561.935 1.122 1.497 1.122z" fill="#E52C85"/><path d="M15.761 262.568l73.523 34.422.748-1.496-72.4-33.862c-.561.187-1.31.562-1.87.936zm30.869-8.606c2.62 3.181 5.051 6.174 7.67 9.354.749.936 2.058-.187 1.497-.935-2.62-3.181-5.051-6.174-7.67-9.354-.562.187-.936.561-1.497.935zm-4.863 3.368c1.684 2.806 3.18 5.799 4.864 8.605.561 1.123-.935 2.058-1.496 1.123-1.684-2.994-3.368-5.8-4.865-8.793l1.497-.935z" fill="#fff"/><path d="M128.012 252.091c.374 0 .935-.187 1.123-.561 16.463-25.256 24.881-45.086 30.868-72.774.187-.748-.374-1.497-1.123-1.684-.748-.187-1.496.374-1.683 1.123-5.987 27.313-14.219 46.77-30.494 71.838-.375.562-.188 1.497.374 1.871.374 0 .748.187.935.187zm-11.413 10.477c.562 0 .936-.375 1.31-.749.374-.748 0-1.496-.561-1.87-17.96-8.98-35.92-18.521-53.318-28.624-.748-.374-1.497-.187-1.871.562-.374.748-.187 1.496.561 1.87 17.399 10.103 35.546 19.644 53.505 28.624 0 0 .187.187.374.187zm63.234 52.195c.748 0 1.309-.561 1.309-1.123.187-.748-.374-1.496-1.122-1.683l-12.348-2.245c-16.463-2.994-30.307-5.613-48.64-8.98-.749-.187-1.497.374-1.684 1.122-.187.749.374 1.497 1.122 1.684 18.334 3.367 31.991 5.8 48.641 8.98l12.347 2.245h.375z" fill="#E52C85"/><path d="M10.335 212.243c4.864 0 10.103-2.245 14.78-4.303 2.806-1.122 5.425-2.432 7.67-2.993 7.483-2.058 15.528-.187 21.701 5.051.562.561 1.497.374 2.058-.187.561-.561.374-1.496-.187-2.058-6.922-5.799-15.902-7.857-24.32-5.612-2.62.748-5.239 1.871-8.045 3.18-7.67 3.368-15.715 6.922-21.514.749a1.467 1.467 0 00-2.058 0 1.467 1.467 0 000 2.057c3.18 2.994 6.548 4.116 9.915 4.116zm.001 14.405c4.864 0 10.102-2.245 14.78-4.303 2.805-1.122 5.425-2.432 7.67-2.993 7.483-2.058 15.527-.187 21.7 5.051.562.562 1.497.374 2.059-.187.56-.561.374-1.496-.187-2.058-6.922-5.799-15.902-7.857-24.32-5.612-2.62.748-5.24 1.871-8.045 3.18-7.67 3.368-15.715 6.922-21.514.749a1.467 1.467 0 00-2.058 0 1.467 1.467 0 000 2.057c3.18 2.994 6.547 4.116 9.915 4.116z" fill="#fff"/><path d="M118.279 114.961h113.932c13.47-26.19 12.722-44.899 12.722-44.899-18.334 7.484-59.492 31.43-67.91 38.165 0 0-41.532-16.09-57.06 3.928-.561.936-1.309 1.871-1.684 2.806z" fill="#E52C85"/><path d="M118.279 114.961c.562-.935 1.123-1.871 1.871-2.806 7.296-9.541 19.269-11.599 32.365-9.728 11.038 1.87 15.341 10.102 8.232 23.198-6.548 11.786-12.348 4.302-8.419-3.555l-2.432-3.929c-.374.374-.748.749-.936 1.31-2.993 5.238-3.18 9.915-5.799 12.721-3.367 3.368-8.044 0-8.232-1.87 0 0-4.864 6.36-9.354 0 0 0-3.928 3.928-7.67-1.123-3.741-5.051.374-14.218.374-14.218z" fill="#fff"/><path d="M139.794 135.166c1.684 0 3.181-.561 4.303-1.871 1.684-1.684 2.432-4.116 3.367-6.548.562-1.871 1.31-3.928 2.433-5.986l.935 1.496c-1.871 4.49-1.31 9.167 1.684 10.664 1.122.561 5.051 1.871 9.541-6.361 3.928-7.109 4.677-13.282 2.432-17.772-1.871-3.929-5.987-6.548-11.599-7.484l-.561-.187c-15.154-2.058-26.379 1.497-33.114 10.29-.561.748-1.122 1.496-1.496 2.245l-.187.561v.187l-1.123 2.058h.374c-1.122 3.18-2.619 9.541.374 13.657 1.497 1.871 3.181 2.993 5.052 3.18 1.496.187 2.806-.374 3.554-.935 1.497 1.496 2.993 2.245 4.677 2.245 1.871 0 3.555-.936 4.49-1.871.748.935 1.871 1.684 2.993 2.058.375.187 1.123.374 1.871.374zm10.477-19.269l-1.31 1.309c-.561.561-.935.936-1.122 1.497-1.497 2.432-2.245 4.864-2.994 7.109-.748 2.245-1.496 4.116-2.619 5.425-.935.936-2.058 1.31-3.367.936-1.497-.375-2.432-1.497-2.432-1.871l-.561-3.181-1.871 2.432c-.562.562-2.058 2.245-3.742 2.245-1.122 0-2.245-.748-3.367-2.245l-.936-1.309-1.122 1.122s-1.123 1.123-2.619 1.123c-.936 0-2.058-.748-2.994-2.058-2.993-4.116.375-11.973.562-12.721a15.06 15.06 0 011.683-2.62c6.174-8.044 16.65-11.224 31.056-9.166h.374c4.677.748 7.857 2.806 9.167 5.799 1.871 3.742.935 8.98-2.432 15.341-2.432 4.489-4.677 5.799-5.8 5.238-1.309-.561-1.871-3.929 0-7.67l.374-.749-3.928-5.986z" fill="#E52C85"/><path d="M139.232 111.407c.562-1.122 2.245-.187 1.684.935-2.993 5.239-4.49 10.851-4.677 17.025 0 1.122-1.871 1.122-1.871 0 .187-6.548 1.684-12.535 4.864-17.96zm-10.848-1.871c.561-1.123 2.058-.187 1.684.935-2.432 5.425-3.742 11.038-3.929 16.837 0 1.123-1.871 1.123-1.871 0 .187-6.173 1.497-12.16 4.116-17.772z" fill="#E52C85"/><path d="M203.032 103.175c.374 0 .749-.187 1.123-.561l9.354-11.973c.561-.562.374-1.497-.187-2.058-.562-.561-1.497-.374-2.058.187l-9.354 11.973c-.562.561-.374 1.497.187 2.058.374.187.561.374.935.374zm6.922 8.419c.187 0 .561 0 .748-.187l8.606-5.987c.561-.374.748-1.309.374-1.871-.374-.561-1.31-.748-1.871-.374l-8.605 5.987c-.562.374-.749 1.309-.375 1.871.187.374.749.561 1.123.561z" fill="#fff"/><path d="M185.255 93.821l-5.425 8.606-8.419-19.83 13.844 11.224z" fill="#720C46"/><path d="M147.214 16.12l50.95-8.378 5.312 32.306-50.95 8.377-5.312-32.305z" fill="#E52C85"/><path d="M182.772 29.422l7.569-1.244c1.292-.213 2.218-1.503 2.005-2.795-.212-1.292-1.502-2.217-2.794-2.005l-7.569 1.244c-1.292.213-2.218 1.503-2.005 2.795.028 1.322 1.318 2.248 2.794 2.005zm-12.74 2.094l3.877-.637c1.292-.212 2.218-1.502 2.005-2.794-.212-1.293-1.502-2.218-2.794-2.006l-3.877.638c-1.292.212-2.218 1.502-2.005 2.794.212 1.292 1.502 2.218 2.794 2.005z" fill="#fff"/><path d="M136.13 30.633l64.198 37.72-14.974 25.486-64.198-37.72 14.974-25.486z" fill="#720C46"/><path d="M182.636 76.61c.561 0 .935-.187 1.122-.748.374-.748.187-1.497-.561-1.87L154.012 56.78c-.748-.374-1.496-.187-1.87.561-.375.748-.187 1.497.561 1.87l29.184 17.212c.374 0 .562.187.749.187z" fill="#fff"/><path d="M222.484 160.422c-3.554-20.953-11.411-89.611 36.668-94.663 34.236-3.554 64.356 12.16 66.039 68.098.562 15.527 1.31 30.119 1.497 43.215a498.291 498.291 0 01-104.204-16.65z" fill="#E52C85"/><path d="M223.983 112.342c.561 0 1.122-.374 1.309-.935l5.987-16.837c.187-.749-.187-1.497-.936-1.871-.748-.187-1.496.187-1.87.935l-5.987 16.837c-.187.749.187 1.497.935 1.871h.562z" fill="#fff"/><path d="M200.412 141.714h2.993c2.058 0 3.367-2.058 2.619-3.929l-2.806-7.296-2.806 11.225z" fill="#E52C85"/><path d="M198.54 143.024h4.864c1.309 0 2.619-.749 3.554-1.871.749-1.123.936-2.619.561-3.929l-4.302-11.412-4.677 17.212zm5.238-7.858l1.122 3.181c.187.374.187.935-.187 1.309-.187.374-.748.561-1.122.561h-1.31l1.497-5.051z" fill="#fff"/><path d="M169.729 108.227l11.786 31.616c.374 1.123 1.497 1.871 2.619 1.871h16.089l2.993-11.038-1.309-3.554-3.368-9.167-4.303-11.599c-.374-1.122-1.496-1.871-2.619-1.871h-19.269c-1.871-.187-3.18 1.871-2.619 3.742z" fill="#fff"/><path d="M184.322 143.024h17.212l3.367-12.535-9.354-24.694c-.561-1.684-2.245-2.806-3.929-2.806h-19.269c-1.309 0-2.619.748-3.554 1.87-.749 1.123-.936 2.619-.562 3.929l11.787 31.617c.935 1.496 2.619 2.619 4.302 2.619zm15.154-2.807h-15.154a1.406 1.406 0 01-1.309-.935l-11.973-31.616c-.187-.375-.187-.936.187-1.31.187-.374.748-.561 1.122-.561h19.269c.562 0 1.123.374 1.31.935l8.98 23.946-2.432 9.541z" fill="#fff"/><path d="M177.212 131.425c-9.354-7.483-7.296-17.211 1.31-10.477 5.986 4.677 15.715 7.297 25.069 9.167l.561-3.18c-1.123-.748-1.684-.561-2.058.187l-3.367-9.167c.374-.187.935-.187 1.309-.374 13.096-2.993 17.773 1.122 20.205 15.715 3.554 5.612 29.933 48.266-2.619 36.667-18.895-6.734-22.263-8.418-29.559-12.16-6.548-3.18-9.541-15.153-9.541-15.153-6.174-7.671-1.31-11.225-1.31-11.225z" fill="#fff"/><path d="M226.975 173.144c2.993 0 5.051-.936 6.547-2.619 6.361-7.858-7.296-30.681-11.786-37.977-1.496-8.419-3.741-13.096-7.296-15.528-3.367-2.245-7.857-2.619-14.592-.936-.374 0-.935.188-1.31.375l-1.496.374.561 1.496 3.742 9.729c-10.103-2.058-17.212-4.865-21.515-8.232-5.612-4.303-8.231-2.058-8.792-1.122-2.058 2.619-.749 8.044 4.677 12.908-.562.748-1.123 1.684-1.123 3.18-.374 2.62.749 5.426 3.181 8.419.561 2.058 3.741 12.534 10.102 15.902 7.483 3.741 10.851 5.425 29.746 12.16 3.367 1.123 6.734 1.871 9.354 1.871zm-20.018-55.189c2.432 0 4.303.562 5.8 1.497 2.993 2.058 4.864 6.174 6.173 13.844v.187l.187.187c8.793 13.844 16.089 30.12 12.16 34.984-1.683 2.245-6.36 2.058-13.095-.374-18.895-6.735-22.263-8.419-29.559-12.16-5.986-2.994-8.793-14.218-8.793-14.218v-.375l-.187-.187c-2.058-2.432-2.993-4.677-2.619-6.548.187-1.683 1.31-2.432 1.31-2.432l1.496-1.122-1.496-1.123c-5.238-4.115-6.174-8.792-5.238-9.915.561-.748 2.245-.374 4.864 1.684 5.051 3.929 13.469 7.109 25.63 9.354l1.496.187.936-5.425-.749-.562c-.748-.561-1.496-.748-2.058-.748l-2.432-6.173c2.245-.375 4.303-.562 6.174-.562z" fill="#E52C85"/><path d="M310.412 84.093c18.147 20.018 33.862 70.155 22.263 94.85-6.548 14.031-24.321 16.276-48.641 14.405-18.895-1.497-41.532-7.67-66.226-21.327 0 0 8.231-28.624 1.87-39.661l62.485 3.928.374-54.44 27.875 2.245z" fill="#E52C85"/><path d="M281.601 138.908c.749 0 1.31-.561 1.31-1.31 1.123-13.095 1.31-26.378.935-39.474 0-.748-.561-1.31-1.496-1.31-.749 0-1.31.75-1.31 1.498.374 13.095.187 26.191-.935 39.286.187.562.748 1.31 1.496 1.31z" fill="#fff"/><path d="M286.281 140.217c.749 0 1.31-.561 1.31-1.309 0-.749-.374-1.497-1.31-1.497-21.514-2.619-41.531-4.116-63.046-5.051-.748 0-1.496.561-1.496 1.309 0 .749.561 1.497 1.309 1.497 21.702.935 41.719 2.432 63.233 5.051-.187 0 0 0 0 0z" fill="#fff"/><path d="M227.912 172.582c.561 0 .935-.374 1.309-.748 5.613-11.786 6.735-24.508 3.368-37.042-.187-.748-.936-1.123-1.684-.935-.748.187-1.122.935-.935 1.683 3.18 11.786 2.245 23.946-3.181 35.171-.374.749 0 1.497.749 1.871-.188-.187.187 0 .374 0z" fill="#fff"/><path d="M179.27 131.051c2.62 2.806 5.613 4.864 9.167 6.36 1.123.562.187 2.058-.935 1.684-3.555-1.496-6.735-3.741-9.541-6.735-.748-.748.561-2.245 1.309-1.309zm2.806 12.908l4.864 2.993c.935.561 0 2.245-.936 1.684l-4.864-2.993c-.935-.749 0-2.432.936-1.684zm23.011-13.844c1.122.187 2.058.374 3.18.187 1.123-.187 1.123 1.684 0 1.871-1.309.187-2.432 0-3.741-.187-1.123-.375-.561-2.058.561-1.871z" fill="#E52C85"/><path d="M245.683 18.241c11.599-6.735 27.127-1.87 34.797 11.038v.187c1.31-.561 2.432-1.123 3.555-1.497 7.857-2.058 13.282 3.368 12.16 9.728-1.123 5.613-5.8 11.225-12.722 11.974-1.496 6.173-5.051 11.599-10.289 15.34-15.528 11.038-27.127 1.871-34.797-11.038-7.483-12.908-4.303-28.997 7.296-35.732z" fill="#fff"/><path d="M259.714 71.184c4.677 0 9.354-1.683 14.218-5.238 5.052-3.554 8.793-8.98 10.477-15.153 7.296-1.123 11.973-7.483 13.095-12.909a9.384 9.384 0 00-2.806-8.98c-2.806-2.619-6.735-3.554-11.038-2.432-.935.188-1.87.562-2.806.936-3.928-6.174-9.541-10.477-16.089-12.535-6.922-2.244-14.031-1.496-20.017 2.058-12.16 7.11-15.715 24.134-7.67 37.603 5.425 9.354 11.786 14.78 18.708 16.276 1.309.374 2.619.374 3.928.374zm27.501-42.28c2.245 0 4.116.749 5.612 2.058 1.684 1.684 2.432 3.929 1.871 6.548-.935 4.864-5.051 10.29-11.412 10.85h-.935l-.187.936c-1.497 5.987-4.864 11.038-9.728 14.405-5.613 3.929-10.851 5.426-15.902 4.303-6.174-1.31-11.786-6.36-16.837-14.966-7.109-12.16-4.116-27.314 6.735-33.862 5.238-3.18 11.599-3.741 17.772-1.683 6.174 2.057 11.599 6.36 15.154 12.347l.748 1.122 1.31-.56c1.122-.562 2.245-1.123 3.367-1.31.561 0 1.497-.188 2.432-.188z" fill="#E52C85"/><path d="M253.913 45.706a1.871 1.871 0 112.244-2.995 1.871 1.871 0 01-2.244 2.995zm-6.545 12.196c-1.683-3.929-2.619-7.857-3.18-12.16-.187-1.123 1.684-1.497 1.871-.187.374 3.928 1.497 7.857 2.993 11.599.561 1.122-1.122 1.87-1.684.748zm32.364-17.212c.748-4.302 4.489-7.67 8.792-7.857 1.123 0 1.497 1.87.187 1.87-3.554.188-6.547 2.62-7.296 6.174 0 1.31-1.87 1.123-1.683-.187zm-40.035-7.857c5.986-.935 26.004-11.599 29.933.562.935 2.993.561 5.425 3.928 5.238 3.368-.562 2.619-4.303 2.619-4.303 2.994-2.62 5.8-4.864 8.419-5.425-1.309-13.096-10.102-19.457-15.528-17.773 0 0-17.959-20.205-24.881-6.174 0 0-22.263-9.915-25.63 11.412-3.368 21.327 21.14 16.463 21.14 16.463z" fill="#E52C85"/></svg>